<svg width="80" height="80" viewBox="0 0 80 80" fill="none" xmlns="http://www.w3.org/2000/svg">
<rect width="80" height="80" rx="20" fill="#272727"/>
<g clip-path="url(#clip0_311_18865)">
<path d="M51.7656 29.8343L56 25.5999" stroke="#FBC600" stroke-width="2" stroke-miterlimit="10"/>
<path d="M60 21.5999H62.632C63.1368 21.5999 63.3896 22.2103 63.0328 22.5671L60.2344 25.3655C60.084 25.5159 59.8808 25.5999 59.6688 25.5999H56V21.9311C56 21.7191 56.084 21.5151 56.2344 21.3655L59.0328 18.5671C59.3896 18.2103 60 18.4631 60 18.9679V21.5999Z" stroke="#FBC600" stroke-width="2" stroke-miterlimit="10"/>
<path d="M53.8024 35.32C52.88 37.1472 50.9864 38.4 48.8 38.4C45.7072 38.4 43.2 35.8928 43.2 32.8C43.2 30.6136 44.4528 28.72 46.28 27.7976" stroke="#FBC600" stroke-width="2" stroke-miterlimit="10"/>
<path d="M57.252 28.2432C57.984 29.5992 58.4 31.1512 58.4 32.8C58.4 38.1016 54.1016 42.4 48.8 42.4C43.4984 42.4 39.2 38.1016 39.2 32.8C39.2 27.4984 43.4984 23.2 48.8 23.2C50.4488 23.2 52.0008 23.616 53.3568 24.348" stroke="#FBC600" stroke-width="2" stroke-miterlimit="10"/>
<path d="M61.2944 27.4208C62.0056 29.0704 62.4 30.8896 62.4 32.8C62.4 40.3111 56.3112 46.3999 48.8 46.3999C41.2888 46.3999 35.2 40.3111 35.2 32.8C35.2 25.2888 41.2888 19.2 48.8 19.2C50.7104 19.2 52.5296 19.5944 54.1792 20.3056" stroke="#FBC600" stroke-width="2" stroke-miterlimit="10"/>
<path d="M26.1 57.1V56.5H26.7V57.1H26.1Z" fill="#FBC600" stroke="#FBC600"/>
<path d="M29.3 57.1V56.5H29.9V57.1H29.3Z" fill="#FBC600" stroke="#FBC600"/>
<path d="M32.5 57.1V56.5H33.1V57.1H32.5Z" fill="#FBC600" stroke="#FBC600"/>
<path d="M22.9 57.1V56.5H23.5V57.1H22.9Z" fill="#FBC600" stroke="#FBC600"/>
<path d="M19.7 57.1V56.5H20.3V57.1H19.7Z" fill="#FBC600" stroke="#FBC600"/>
<path d="M34.4 41.6001H32C31.5584 41.6001 31.2 41.9585 31.2 42.4001C31.2 42.4673 31.208 42.5329 31.224 42.5953L32.0256 45.8001C32.1136 46.1449 32.4272 46.4001 32.8 46.4001H37.6" stroke="#FBC600" stroke-width="2" stroke-miterlimit="10"/>
<path d="M52 48.8001V57.6001C52 58.9257 50.9256 60.0001 49.6 60.0001H19.2C17.8744 60.0001 16.8 58.9257 16.8 57.6001V36.0001C16.8 34.6745 17.8744 33.6001 19.2 33.6001H32.8" stroke="#FBC600" stroke-width="2" stroke-miterlimit="10"/>
<path d="M31.7752 44.7999H28.7824C26.7256 44.7999 24.7344 44.0799 23.1536 42.7647L16.8 37.4775" stroke="#FBC600" stroke-width="2" stroke-miterlimit="10"/>
<path d="M27.2 33.6V31.2C27.2 29.8744 28.2744 28.8 29.6 28.8H32.8" stroke="#FBC600" stroke-width="2" stroke-miterlimit="10"/>
<path d="M53.364 31.4328C53.5096 31.5776 53.6 31.7784 53.6 32C53.6 32.3568 53.3664 32.6568 53.044 32.7616C51.8376 33.1552 48.2272 34.364 48.2272 34.364C48.156 34.3872 48.0792 34.4 48 34.4C47.5896 34.4 47.2 34.0104 47.2 33.6C47.2 33.5208 47.2128 33.444 47.2352 33.3728C47.2352 33.3728 48.4432 29.7616 48.8376 28.5552C48.9432 28.2336 49.244 28 49.6 28C49.82 28 50.0192 28.0888 50.164 28.2328L53.364 31.4328Z" stroke="#FBC600" stroke-width="2" stroke-miterlimit="10"/>
</g>
<defs>
<clipPath id="clip0_311_18865">
<rect width="48" height="48" fill="white" transform="translate(16 16)"/>
</clipPath>
</defs>
</svg>
