<svg width="80" height="80" viewBox="0 0 80 80" fill="none" xmlns="http://www.w3.org/2000/svg">
<rect width="80" height="80" rx="20" fill="#272727"/>
<path d="M55.3376 31.0623C55.7616 30.6383 56.3376 30.3999 56.9376 30.3999C58.1872 30.3999 59.2 31.4127 59.2 32.6623C59.2 33.2623 58.9616 33.8383 58.5376 34.2623L51.5256 41.2743" stroke="#FBC600" stroke-width="2" stroke-miterlimit="10"/>
<path d="M56.1376 36.6624C56.5616 36.2384 57.1376 36 57.7376 36C58.9872 36 60 37.0128 60 38.2624C60 38.8624 59.7616 39.4384 59.3376 39.8624L47.5024 51.6976C46.776 52.424 45.9016 52.9872 44.9392 53.348L41.46 54.6528C40.4976 55.0136 39.624 55.5768 38.8968 56.3032L36.8 58.4" stroke="#FBC600" stroke-width="2" stroke-miterlimit="10"/>
<path d="M27.2 48.8L28.1576 47.8425C29.5936 46.4065 30.4 44.4592 30.4 42.4288C30.4 42.008 30.3648 41.5872 30.2952 41.172L28.832 32.3952C28.8112 32.2664 28.8 32.1344 28.8 32C28.8 30.6744 29.8744 29.6 31.2 29.6C32.3248 29.6 33.2688 30.3736 33.5288 31.4184L34.9264 37.0088C35.0184 37.3776 35.3416 37.6 35.6752 37.6C35.872 37.6 36.072 37.528 36.2304 37.3696L48.1376 25.4624C48.5616 25.0384 49.1376 24.8 49.7376 24.8C50.9872 24.8 52 25.8128 52 27.0624C52 27.6624 51.7616 28.2384 51.3376 28.6624L45.1256 34.8744" stroke="#FBC600" stroke-width="2" stroke-miterlimit="10"/>
<path d="M23.5192 49.2808L24.2352 48.5648C24.5968 48.2032 25.088 48 25.6 48C26.1128 48 26.6032 48.2032 26.9656 48.5656L37.0336 58.6336C37.396 58.996 37.6 59.488 37.6 60C37.6 60.5128 37.396 61.004 37.0336 61.3664L36.3192 62.0808" stroke="#FBC600" stroke-width="2" stroke-miterlimit="10"/>
<path d="M33.3 60.2999V59.7H33.9V60.2999H33.3Z" fill="#FBC600" stroke="#FBC600"/>
<path d="M17.6 32.8H19.2C20.084 32.8 20.8 33.516 20.8 34.4V48C20.8 48.884 20.084 49.6 19.2 49.6H17.6" stroke="#FBC600" stroke-width="2" stroke-miterlimit="10"/>
<path d="M20.8 35.7376L22.0552 35.2088C23.0664 34.7824 23.7888 33.868 23.9688 32.7856L25.6328 22.8024C25.8216 21.6664 26.8096 20.8 28 20.8C29.3256 20.8 30.4 21.8744 30.4 23.2V29.7392" stroke="#FBC600" stroke-width="2" stroke-miterlimit="10"/>
<path d="M33.4784 31.2457L44.5864 25.8241C44.8944 25.6801 45.2376 25.6001 45.6 25.6001C46.2616 25.6001 46.8608 25.8681 47.2952 26.3009" stroke="#FBC600" stroke-width="2" stroke-miterlimit="10"/>
<path d="M41.6 20V16" stroke="#FBC600" stroke-width="2" stroke-miterlimit="10"/>
<path d="M46.4 20.4864L47.3488 16.9456" stroke="#FBC600" stroke-width="2" stroke-miterlimit="10"/>
<path d="M50.9568 22.1945L52.9944 18.6641" stroke="#FBC600" stroke-width="2" stroke-miterlimit="10"/>
<path d="M36.8424 20.6456L35.8512 16.9456" stroke="#FBC600" stroke-width="2" stroke-miterlimit="10"/>
<path d="M59.5136 46.3999L63.0544 47.3487" stroke="#FBC600" stroke-width="2" stroke-miterlimit="10"/>
<path d="M57.8056 50.9568L61.336 52.9944" stroke="#FBC600" stroke-width="2" stroke-miterlimit="10"/>
<path d="M54.7336 54.7336L57.292 57.292" stroke="#FBC600" stroke-width="2" stroke-miterlimit="10"/>
<path d="M50.8728 57.6609L52.7056 60.8361" stroke="#FBC600" stroke-width="2" stroke-miterlimit="10"/>
<path d="M46.4432 59.6753L47.4984 63.6129" stroke="#FBC600" stroke-width="2" stroke-miterlimit="10"/>
<path d="M41.6 64V60" stroke="#FBC600" stroke-width="2" stroke-miterlimit="10"/>
<path d="M48.3168 38.0831L56.1376 30.2623C56.5616 29.8383 56.8 29.2623 56.8 28.6623C56.8 27.4127 55.7872 26.3999 54.5376 26.3999C53.9376 26.3999 53.3616 26.6383 52.9376 27.0623L52.1376 27.8623L51.3376 28.6623" stroke="#FBC600" stroke-width="2" stroke-miterlimit="10"/>
</svg>
