<svg width="18" height="18" viewBox="0 0 18 18" fill="none" xmlns="http://www.w3.org/2000/svg">
<g clip-path="url(#clip0_351_18996)">
<path d="M12.6 3.6001H5.39998V4.8001C5.39998 5.13147 5.13135 5.4001 4.79998 5.4001C4.4686 5.4001 4.19998 5.13147 4.19998 4.8001V3.6001H2.99998C2.33723 3.6001 1.79998 4.13736 1.79998 4.8001V6.6001H16.2V4.8001C16.2 4.13736 15.6627 3.6001 15 3.6001H13.8V4.8001C13.8 5.13147 13.5313 5.4001 13.2 5.4001C12.8686 5.4001 12.6 5.13147 12.6 4.8001V3.6001ZM13.8 2.4001H15C16.3255 2.4001 17.4 3.47461 17.4 4.8001V15.0001C17.4 16.3256 16.3255 17.4001 15 17.4001H2.99998C1.67449 17.4001 0.599976 16.3256 0.599976 15.0001V4.8001C0.599976 3.47461 1.67449 2.4001 2.99998 2.4001H4.19998V1.2001C4.19998 0.868727 4.4686 0.600098 4.79998 0.600098C5.13135 0.600098 5.39998 0.868727 5.39998 1.2001V2.4001H12.6V1.2001C12.6 0.868727 12.8686 0.600098 13.2 0.600098C13.5313 0.600098 13.8 0.868727 13.8 1.2001V2.4001ZM16.2 7.8001H1.79998V15.0001C1.79998 15.6628 2.33723 16.2001 2.99998 16.2001H15C15.6627 16.2001 16.2 15.6628 16.2 15.0001V7.8001ZM4.49998 11.4001C4.00292 11.4001 3.59998 10.9972 3.59998 10.5001C3.59998 10.003 4.00292 9.6001 4.49998 9.6001C4.99703 9.6001 5.39998 10.003 5.39998 10.5001C5.39998 10.9972 4.99703 11.4001 4.49998 11.4001ZM7.49998 11.4001C7.00292 11.4001 6.59998 10.9972 6.59998 10.5001C6.59998 10.003 7.00292 9.6001 7.49998 9.6001C7.99703 9.6001 8.39998 10.003 8.39998 10.5001C8.39998 10.9972 7.99703 11.4001 7.49998 11.4001ZM10.5 11.4001C10.0029 11.4001 9.59998 10.9972 9.59998 10.5001C9.59998 10.003 10.0029 9.6001 10.5 9.6001C10.997 9.6001 11.4 10.003 11.4 10.5001C11.4 10.9972 10.997 11.4001 10.5 11.4001ZM13.5 11.4001C13.0029 11.4001 12.6 10.9972 12.6 10.5001C12.6 10.003 13.0029 9.6001 13.5 9.6001C13.997 9.6001 14.4 10.003 14.4 10.5001C14.4 10.9972 13.997 11.4001 13.5 11.4001ZM4.49998 14.4001C4.00292 14.4001 3.59998 13.9972 3.59998 13.5001C3.59998 13.003 4.00292 12.6001 4.49998 12.6001C4.99703 12.6001 5.39998 13.003 5.39998 13.5001C5.39998 13.9972 4.99703 14.4001 4.49998 14.4001ZM7.49998 14.4001C7.00292 14.4001 6.59998 13.9972 6.59998 13.5001C6.59998 13.003 7.00292 12.6001 7.49998 12.6001C7.99703 12.6001 8.39998 13.003 8.39998 13.5001C8.39998 13.9972 7.99703 14.4001 7.49998 14.4001ZM10.5 14.4001C10.0029 14.4001 9.59998 13.9972 9.59998 13.5001C9.59998 13.003 10.0029 12.6001 10.5 12.6001C10.997 12.6001 11.4 13.003 11.4 13.5001C11.4 13.9972 10.997 14.4001 10.5 14.4001ZM13.5 14.4001C13.0029 14.4001 12.6 13.9972 12.6 13.5001C12.6 13.003 13.0029 12.6001 13.5 12.6001C13.997 12.6001 14.4 13.003 14.4 13.5001C14.4 13.9972 13.997 14.4001 13.5 14.4001Z" fill="black" fill-opacity="0.5"/>
</g>
<defs>
<clipPath id="clip0_351_18996">
<rect width="18" height="18" fill="white"/>
</clipPath>
</defs>
</svg>
