<svg width="192" height="192" viewBox="0 0 192 192" fill="none" xmlns="http://www.w3.org/2000/svg">
<path d="M113.572 132.571H85.6635L85.6336 117.407H113.572C117.753 117.407 121.152 120.809 121.152 124.991C121.152 129.169 117.753 132.571 113.572 132.571ZM113.572 89.5226C117.753 89.5226 121.152 92.9246 121.152 97.103C121.152 101.284 117.753 104.686 113.572 104.686H85.6066L85.5766 89.5226H113.572ZM133.873 97.103C133.873 85.9107 124.767 76.8017 113.572 76.8017H105.611L105.503 67.8096L92.7823 67.9594L92.8902 76.8017H85.5496L85.5316 67.8725L72.8078 67.8965L72.8288 76.8017H63.384V89.5226H72.8557L72.9457 132.571H63.384V145.292H72.9726L72.9906 154.662L85.7115 154.635L85.6935 145.292H92.8572L92.9651 154.722L105.686 154.575L105.578 145.292H113.572C124.767 145.292 133.873 136.186 133.873 124.991C133.873 119.595 131.76 114.686 128.316 111.047C131.76 107.408 133.873 102.498 133.873 97.103Z" fill="#141414"/>
<path d="M58.6886 181.771C55.2087 188.602 46.4443 190.856 40.2008 186.408C15.1008 168.535 0 139.718 0 108.272C0 76.8028 15.1008 47.983 40.2008 30.1246C46.4473 25.6795 55.2147 27.9365 58.6886 34.7705C61.4972 40.2917 59.9265 47.0867 54.879 50.6806C36.3852 63.8451 25.2529 85.0845 25.2529 108.272C25.2529 131.442 36.3852 152.681 54.888 165.858C59.9325 169.455 61.5002 176.253 58.6886 181.771Z" fill="#FBC600"/>
<path d="M133.314 181.774C130.503 176.253 132.067 169.455 137.115 165.858C155.615 152.681 166.747 131.442 166.747 108.272C166.747 85.0845 155.615 63.8451 137.121 50.6806C132.076 47.0867 130.506 40.2917 133.314 34.7735C136.788 27.9395 145.553 25.6795 151.802 30.1246C176.899 47.983 192 76.8058 192 108.272C192 139.718 176.902 168.535 151.802 186.411C145.559 190.856 136.794 188.605 133.314 181.774Z" fill="#FBC600"/>
<path d="M105.865 22.1455L96.2521 3.29199L86.4717 22.4812L75.801 11.8105V42.5846H116.2V11.8105L105.865 22.1455Z" fill="#FBC600"/>
</svg>
