<svg width="694" height="725" viewBox="0 0 694 725" fill="none" xmlns="http://www.w3.org/2000/svg">
<g clip-path="url(#clip0_266_17287)">
<path d="M88.9769 465.594L88.7358 454.763C88.6594 451.188 88.5457 447.651 88.5134 444.13L88.9769 444.594C80.5168 444.681 72.0566 444.864 63.5982 444.873L38.2195 444.978L39.0667 444.13L38.975 465.594L38.2195 464.838C42.4063 464.867 46.5845 464.851 50.7815 464.93L63.4029 465.122L88.9769 465.594ZM88.9769 465.594L63.7934 466.068L51.0345 466.258C46.773 466.338 42.4911 466.323 38.2195 466.352L37.4657 466.357L37.4623 465.594L37.3706 444.13L37.3672 443.278L38.2195 443.281L63.5982 443.39C72.0566 443.398 80.5168 443.58 88.9769 443.667L89.4438 443.672L89.4404 444.13C89.4081 447.766 89.2944 451.382 89.218 454.962L88.9769 465.594Z" fill="#ECECEC"/>
<path d="M60.6624 492.657L60.4214 481.826C60.345 478.251 60.2312 474.714 60.1989 471.194L60.6624 471.659C52.2023 471.744 43.7439 471.928 35.2837 471.936L9.90503 472.042L10.7522 471.194L10.6606 492.657L9.90503 491.901C14.0918 491.93 18.2701 491.915 22.4671 491.993L35.0885 492.185L60.6624 492.657ZM60.6624 492.657L35.479 493.131L22.72 493.323C18.4585 493.401 14.1767 493.386 9.90503 493.415L9.15121 493.42L9.14781 492.657L9.05613 471.194L9.05273 470.343L9.90503 470.346L35.2837 470.453C43.7439 470.461 52.2023 470.643 60.6624 470.732L61.1293 470.737L61.1259 471.194C61.0937 474.83 60.9799 478.445 60.9035 482.026L60.6624 492.657Z" fill="#ECECEC"/>
<path d="M60.6624 28.221L60.4214 17.39C60.345 13.8153 60.2312 10.278 60.1989 6.75768L60.6624 7.2215C52.2023 7.30815 43.7439 7.48994 35.2837 7.49844L9.90503 7.60547L10.7522 6.75768L10.6606 28.221L9.90503 27.4633C14.0918 27.4938 18.2701 27.4769 22.4671 27.5567L35.0885 27.747L60.6624 28.221ZM60.6624 28.221L35.479 28.695L22.72 28.8853C18.4585 28.9652 14.1767 28.9482 9.90503 28.9788L9.15121 28.9839L9.14781 28.221L9.05613 6.75768L9.05273 5.90479L9.90503 5.90988L35.2837 6.01522C43.7439 6.02371 52.2023 6.20721 60.6624 6.29385L61.1293 6.29895L61.1259 6.75768C61.0937 10.3918 60.9799 14.009 60.9035 17.5887L60.6624 28.221Z" fill="#ECECEC"/>
<path d="M702.391 28.221L702.15 17.39C702.074 13.8153 701.96 10.278 701.929 6.75768L702.391 7.2215C693.933 7.30815 685.473 7.48994 677.014 7.49844L651.634 7.60547L652.483 6.75768L652.391 28.221L651.634 27.4633C655.821 27.4938 659.999 27.4769 664.198 27.5567L676.817 27.747L702.391 28.221ZM702.391 28.221L677.209 28.695L664.449 28.8853C660.189 28.9652 655.905 28.9482 651.634 28.9788L650.88 28.9839L650.877 28.221L650.785 6.75768L650.783 5.90479L651.634 5.90988L677.014 6.01522C685.473 6.02371 693.933 6.20721 702.391 6.29385L702.858 6.29895L702.855 6.75768C702.824 10.3918 702.709 14.009 702.634 17.5887L702.391 28.221Z" fill="#ECECEC"/>
<path d="M674.078 55.2862L673.837 44.4551C673.761 40.8805 673.647 37.3415 673.617 33.8229L674.078 34.2867C665.62 34.3716 657.158 34.5551 648.7 34.5636L623.321 34.6707L624.168 33.8229L624.078 55.2862L623.321 54.5285C627.508 54.559 631.686 54.542 635.883 54.6219L648.505 54.8122L674.078 55.2862ZM674.078 55.2862L648.895 55.7585L636.136 55.9505C631.875 56.0287 627.593 56.0134 623.321 56.0423L622.567 56.0474L622.564 55.2862L622.472 33.8229L622.469 32.97L623.321 32.9734L648.7 33.0804C657.158 33.0889 665.62 33.2707 674.078 33.359L674.545 33.3641L674.54 33.8229C674.51 37.457 674.396 41.0725 674.32 44.6539L674.078 55.2862Z" fill="#ECECEC"/>
<path d="M544.079 306.385L543.838 295.554C543.761 291.979 543.647 288.44 543.617 284.921L544.079 285.385C535.62 285.472 527.16 285.654 518.7 285.662L493.321 285.769L494.17 284.921L494.079 306.385L493.321 305.627C497.508 305.658 501.686 305.641 505.885 305.721L518.505 305.911L544.079 306.385ZM544.079 306.385L518.897 306.859L506.136 307.049C501.877 307.127 497.593 307.112 493.321 307.143L492.567 307.148L492.564 306.385L492.472 284.921L492.471 284.069L493.321 284.072L518.7 284.179C527.16 284.188 535.62 284.369 544.079 284.458L544.546 284.463L544.542 284.921C544.51 288.556 544.396 292.173 544.322 295.753L544.079 306.385Z" fill="#ECECEC"/>
<path d="M515.766 333.45L515.523 322.619C515.448 319.044 515.335 315.507 515.302 311.986L515.766 312.45C507.306 312.537 498.846 312.719 490.387 312.729L465.009 312.834L465.856 311.986L465.764 333.45L465.009 332.692C469.195 332.723 473.372 332.707 477.571 332.785L490.192 332.976L515.766 333.45ZM515.766 333.45L490.583 333.924L477.824 334.114C473.562 334.194 469.28 334.177 465.009 334.208L464.255 334.213L464.251 333.45L464.16 311.986L464.156 311.134L465.009 311.139L490.387 311.244C498.846 311.254 507.306 311.436 515.766 311.523L516.233 311.528L516.228 311.986C516.197 315.621 516.083 319.238 516.007 322.817L515.766 333.45Z" fill="#ECECEC"/>
<path d="M487.563 306.385L487.32 295.554C487.245 291.979 487.13 288.44 487.099 284.922L487.563 285.386C479.103 285.472 470.643 285.654 462.184 285.663L436.805 285.77L437.653 284.922L437.561 306.385L436.805 305.627C440.99 305.658 445.169 305.641 449.367 305.721L461.989 305.911L487.563 306.385ZM487.563 306.385L462.379 306.859L449.62 307.049C445.359 307.128 441.075 307.112 436.805 307.143L436.05 307.148L436.047 306.385L435.957 284.922L435.953 284.069L436.805 284.072L462.184 284.179C470.643 284.188 479.103 284.37 487.563 284.458L488.03 284.463L488.025 284.922C487.994 288.556 487.88 292.173 487.804 295.753L487.563 306.385Z" fill="#ECECEC"/>
<path d="M702.391 492.657L702.15 481.826C702.074 478.251 701.96 474.714 701.929 471.194L702.391 471.659C693.933 471.744 685.473 471.928 677.013 471.936L651.634 472.042L652.483 471.194L652.391 492.657L651.634 491.901C655.821 491.93 659.999 491.915 664.198 491.993L676.817 492.185L702.391 492.657ZM702.391 492.657L677.209 493.131L664.449 493.323C660.189 493.401 655.905 493.386 651.634 493.415L650.88 493.42L650.877 492.657L650.785 471.194L650.783 470.343L651.634 470.346L677.013 470.453C685.473 470.461 693.933 470.643 702.391 470.732L702.858 470.737L702.855 471.194C702.824 474.83 702.709 478.445 702.634 482.026L702.391 492.657Z" fill="#ECECEC"/>
<path d="M271.131 92.0479L270.89 81.2169C270.814 77.6422 270.7 74.1032 270.669 70.5846L271.131 71.0484C262.673 71.1351 254.213 71.3168 245.752 71.3253L220.374 71.4324L221.221 70.5846L221.129 92.0479L220.374 91.2902C224.561 91.3208 228.739 91.3038 232.936 91.3836L245.557 91.5739L271.131 92.0479ZM271.131 92.0479L245.948 92.5219L233.189 92.7122C228.927 92.7921 224.645 92.7751 220.374 92.8057L219.62 92.8108L219.617 92.0479L219.525 70.5846L219.521 69.7317L220.374 69.7351L245.752 69.8421C254.213 69.8506 262.673 70.0341 271.131 70.1208L271.598 70.1259L271.595 70.5846C271.562 74.2187 271.449 77.8359 271.372 81.4156L271.131 92.0479Z" fill="#ECECEC"/>
<path d="M634.202 222.261C626.645 226.318 617.238 223.476 613.185 215.912C609.131 208.348 611.961 198.922 619.523 194.865C627.082 190.81 636.506 193.657 640.561 201.221C644.615 208.785 641.763 218.204 634.202 222.261ZM650.25 234.236L660.245 218.112L655.311 215.052C653.858 214.154 653.072 212.511 653.218 210.808C653.298 209.869 653.33 208.921 653.308 207.971C653.269 206.269 654.16 204.683 655.661 203.878L660.775 201.133L651.81 184.406L646.695 187.15C645.196 187.955 643.382 187.819 641.987 186.846C641.207 186.304 640.403 185.804 639.576 185.352C638.077 184.532 637.145 182.967 637.201 181.259L637.384 175.454L618.431 174.865L618.255 180.692C618.204 182.401 617.158 183.888 615.613 184.617C615.194 184.814 614.78 185.024 614.365 185.245C613.954 185.466 613.55 185.697 613.155 185.937C611.698 186.817 609.892 186.868 608.445 185.972L603.474 182.891L593.481 199.016L598.425 202.086C599.875 202.988 600.659 204.631 600.511 206.333C600.43 207.271 600.399 208.212 600.42 209.159C600.455 210.861 599.566 212.444 598.066 213.248L592.949 215.994L601.914 232.722L607.031 229.976C608.53 229.171 610.34 229.305 611.737 230.277C612.513 230.816 613.314 231.312 614.141 231.762C615.639 232.581 616.572 234.146 616.52 235.853L616.34 241.674L635.294 242.262L635.474 236.441C635.527 234.737 636.571 233.255 638.111 232.528C638.532 232.329 638.949 232.117 639.365 231.894C639.778 231.674 640.182 231.443 640.579 231.203C642.041 230.32 643.858 230.269 645.311 231.171L650.25 234.236Z" fill="#ECECEC"/>
<path d="M124.306 516.083C116.747 520.141 107.341 517.3 103.289 509.736C99.2345 502.172 102.065 492.746 109.625 488.689C117.184 484.632 126.61 487.479 130.664 495.043C134.717 502.607 131.864 512.026 124.306 516.083ZM140.353 528.058L150.348 511.935L145.413 508.875C143.961 507.976 143.175 506.333 143.321 504.631C143.401 503.689 143.432 502.743 143.41 501.795C143.372 500.091 144.262 498.504 145.763 497.7L150.878 494.955L141.914 478.228L136.798 480.972C135.299 481.779 133.486 481.643 132.089 480.668C131.311 480.126 130.506 479.628 129.678 479.175C128.18 478.354 127.248 476.789 127.302 475.082L127.488 469.275L108.533 468.687L108.358 474.513C108.308 476.222 107.26 477.71 105.717 478.441C105.297 478.638 104.881 478.847 104.469 479.069C104.058 479.29 103.652 479.52 103.257 479.759C101.802 480.639 99.9934 480.69 98.5486 479.795L93.5774 476.713L83.5824 492.838L88.5264 495.908C89.9781 496.808 90.7624 498.453 90.6147 500.155C90.5332 501.093 90.5027 502.035 90.5231 502.981C90.557 504.683 89.6691 506.267 88.1699 507.07L83.0527 509.818L92.0171 526.542L97.1343 523.799C98.6317 522.993 100.443 523.127 101.841 524.099C102.616 524.638 103.418 525.134 104.243 525.586C105.742 526.403 106.676 527.968 106.623 529.675L106.443 535.496L125.396 536.084L125.578 530.263C125.63 528.559 126.674 527.079 128.213 526.35C128.634 526.152 129.053 525.941 129.469 525.717C129.881 525.496 130.286 525.265 130.683 525.025C132.145 524.14 133.961 524.091 135.413 524.991L140.353 528.058Z" fill="#ECECEC"/>
<path d="M285.499 114.064C285.499 120.079 280.631 124.948 274.623 124.948C268.614 124.948 263.736 120.079 263.736 114.064C263.736 108.052 268.614 103.17 274.623 103.17C280.631 103.17 285.499 108.052 285.499 114.064ZM298.198 108.116L291.56 96.6022L288.04 98.6376C287.005 99.2356 285.73 99.1796 284.728 98.5255C284.175 98.1636 283.601 97.8323 283.008 97.5316C281.945 96.9896 281.261 95.9158 281.261 94.7214V90.6523H267.974V94.7214C267.974 95.9158 267.29 96.9896 266.227 97.5316C265.635 97.8323 265.059 98.1636 264.505 98.5255C263.504 99.1796 262.23 99.2356 261.196 98.6376L257.674 96.6022L251.035 108.116L254.573 110.153C255.609 110.751 256.179 111.89 256.118 113.086C256.103 113.41 256.095 113.737 256.095 114.064C256.095 114.392 256.103 114.719 256.118 115.043C256.179 116.234 255.612 117.367 254.582 117.964L251.035 120.013L257.674 131.527L261.205 129.49C262.241 128.892 263.516 128.951 264.517 129.605C265.067 129.967 265.64 130.298 266.229 130.599C267.29 131.141 267.974 132.215 267.974 133.406V137.477H281.261V133.406C281.261 132.215 281.944 131.141 283.005 130.599C283.596 130.298 284.166 129.967 284.718 129.605C285.72 128.951 286.993 128.892 288.03 129.49L291.56 131.527L298.198 120.013L294.667 117.974C293.635 117.377 293.066 116.243 293.127 115.052C293.142 114.725 293.151 114.396 293.151 114.064C293.151 113.737 293.142 113.41 293.127 113.086C293.066 111.89 293.635 110.75 294.672 110.152L298.198 108.116Z" fill="#ECECEC"/>
<path d="M118.801 554.103C96.6144 575.84 92.8894 609.47 97.5651 638.926C97.6857 639.593 98.7197 639.411 98.7197 638.783C98.7197 632.079 98.5159 625.432 98.5363 618.808C98.6585 618.504 98.7587 618.22 98.8809 617.918C104.67 613.702 109.995 608.942 113.295 602.418C116.998 595.127 118.457 586.902 121.29 579.284C121.555 578.555 120.777 578.769 120.268 579.145C106.772 589.106 102.47 599.825 98.5974 614.149C98.7791 606.714 99.3461 599.28 100.945 591.845C103.861 578.251 109.631 564.778 119.389 554.691C119.754 554.306 119.187 553.718 118.801 554.103Z" fill="#141414"/>
<path d="M122.971 556.637C126.788 556.766 129.182 562.872 132.156 564.652C133.729 565.601 135.262 565.543 136.369 563.99C139.316 559.872 135.272 554.793 131.469 551.953C134.189 553.07 136.445 555.04 139.377 555.597C141.151 555.921 142.532 555.262 142.948 553.456C144.24 547.843 137.204 545.345 132.377 545.228C134.717 543.6 141.425 539.174 137.861 536.998C134.25 534.813 126.379 541.142 123.812 543.225C120.039 546.288 115.54 550.867 115.369 555.66C115.148 561.253 120.034 557.809 122.971 556.637Z" fill="#FBC600"/>
<g opacity="0.1">
<path d="M122.971 556.637C126.788 556.766 129.182 562.872 132.156 564.652C133.729 565.601 135.262 565.543 136.369 563.99C139.316 559.872 135.272 554.793 131.469 551.953C134.189 553.07 136.445 555.04 139.377 555.597C141.151 555.921 142.532 555.262 142.948 553.456C144.24 547.843 137.204 545.345 132.377 545.228C134.717 543.6 141.425 539.174 137.861 536.998C134.25 534.813 126.379 541.142 123.812 543.225C120.039 546.288 115.54 550.867 115.369 555.66C115.148 561.253 120.034 557.809 122.971 556.637Z" fill="#141414"/>
</g>
<path d="M121.866 557.579C126.747 555.359 136.12 558.555 136.918 556.706C138.535 552.943 131.042 550.364 126.998 549.864C130.723 548.853 137.859 547.245 137.64 543.651C137.372 539.263 126.694 543.036 121.29 547.183C114.482 552.408 114.526 557.449 115.652 558.458C117.197 559.843 121.061 557.946 121.866 557.579Z" fill="#FBC600"/>
<path d="M68.2718 551.951C91.2685 572.828 96.2702 606.29 92.715 635.903C92.6199 636.576 91.5809 636.433 91.5571 635.804C91.3024 629.104 91.2532 622.457 90.9798 615.838C90.8474 615.539 90.7354 615.26 90.6029 614.96C84.6572 610.969 79.1564 606.415 75.6097 600.022C71.6317 592.876 69.8626 584.712 66.7404 577.208C66.45 576.489 67.2344 576.675 67.7573 577.031C81.6216 586.469 86.3279 597.018 90.7421 611.183C90.2769 603.762 89.428 596.354 87.5486 588.985C84.119 575.512 77.8406 562.27 67.7064 552.559C67.3278 552.19 67.8728 551.58 68.2718 551.951Z" fill="#141414"/>
<path d="M64.2007 554.642C60.3909 554.915 58.2313 561.108 55.3263 563.001C53.7915 564.008 52.2567 564.008 51.092 562.5C47.9901 558.499 51.8391 553.267 55.5318 550.286C52.856 551.506 50.6761 553.556 47.7677 554.226C46.0054 554.618 44.6013 554.013 44.1175 552.223C42.6132 546.663 49.5487 543.901 54.3671 543.599C51.9681 542.061 45.0971 537.895 48.5742 535.583C52.1005 533.264 60.2058 539.286 62.851 541.273C66.7372 544.19 71.4079 548.592 71.7593 553.374C72.194 558.956 67.1804 555.702 64.2007 554.642Z" fill="#FBC600"/>
<g opacity="0.1">
<path d="M64.2007 554.642C60.3909 554.915 58.2313 561.108 55.3263 563.001C53.7915 564.008 52.2567 564.008 51.092 562.5C47.9901 558.499 51.8391 553.267 55.5318 550.286C52.856 551.506 50.6761 553.556 47.7677 554.226C46.0054 554.618 44.6013 554.013 44.1175 552.223C42.6132 546.663 49.5487 543.901 54.3671 543.599C51.9681 542.061 45.0971 537.895 48.5742 535.583C52.1005 533.264 60.2058 539.286 62.851 541.273C66.7372 544.19 71.4079 548.592 71.7593 553.374C72.194 558.956 67.1804 555.702 64.2007 554.642Z" fill="#141414"/>
</g>
<path d="M65.3397 555.542C60.3787 553.51 51.1308 557.06 50.2649 555.242C48.506 551.543 55.8948 548.68 59.9169 548.026C56.1563 547.16 48.9644 545.824 49.0476 542.224C49.1478 537.827 59.9627 541.194 65.5196 545.131C72.5214 550.094 72.6691 555.131 71.5825 556.183C70.0918 557.627 66.158 555.877 65.3397 555.542Z" fill="#FBC600"/>
<path d="M91.7871 607.088C93.4849 618.091 95.5902 629.466 98.928 640.098C99.2472 641.066 100.684 640.818 100.536 639.772C99.0248 629.6 96.271 619.615 94.7599 609.443C93.2251 599.15 92.4051 588.717 92.9942 578.306C93.962 561.164 98.6139 542.929 109.791 529.517C110.037 529.2 109.516 528.751 109.263 529.045C86.8839 555.157 90.4441 587.169 90.4645 590.039C87.2964 579.23 84.0332 566.839 72.0485 555.831C71.5323 555.357 71.1283 555.583 71.2149 556.389C73.3575 576.438 78.928 586.908 90.5443 597.627C90.8737 600.804 91.2829 603.965 91.7871 607.088Z" fill="#141414"/>
<path d="M109.994 532.523C114.019 530.732 119.573 535.863 123.556 536.213C125.665 536.403 127.225 535.571 127.592 533.405C128.58 527.647 121.829 524.413 116.454 523.38C119.839 523.172 123.169 524.075 126.491 523.178C128.498 522.621 129.598 521.241 129.12 519.16C127.637 512.684 119.082 513.637 114.014 515.946C115.622 513.08 120.356 505.108 115.564 504.646C110.719 504.197 105.736 514.726 104.12 518.183C101.746 523.263 99.381 530.28 101.614 535.335C104.198 541.25 107.536 535.219 109.994 532.523Z" fill="#FBC600"/>
<g opacity="0.1">
<path d="M109.994 532.523C114.019 530.732 119.573 535.863 123.556 536.213C125.665 536.403 127.225 535.571 127.592 533.405C128.58 527.647 121.829 524.413 116.454 523.38C119.839 523.172 123.169 524.075 126.491 523.178C128.498 522.621 129.598 521.241 129.12 519.16C127.637 512.684 119.082 513.637 114.014 515.946C115.622 513.08 120.356 505.108 115.564 504.646C110.719 504.197 105.736 514.726 104.12 518.183C101.746 523.263 99.381 530.28 101.614 535.335C104.198 541.25 107.536 535.219 109.994 532.523Z" fill="#141414"/>
</g>
<path d="M109.323 534.055C113.271 529.293 124.605 527.886 124.502 525.567C124.286 520.851 115.215 521.945 110.768 523.464C114.125 520.54 120.719 515.276 118.683 511.657C116.198 507.238 107.018 516.534 103.497 523.557C99.0603 532.409 101.643 537.616 103.318 538.097C105.617 538.756 108.672 534.842 109.323 534.055Z" fill="#FBC600"/>
<path d="M77.0581 613.122L67.1944 688.58L127.258 688.584C126.021 681.898 114.836 613.038 114.836 613.038L77.0581 613.122Z" fill="#FBC600"/>
<path d="M609.217 689.684C609.217 709.458 495.914 725.488 356.146 725.488C216.382 725.488 103.079 709.458 103.079 689.684C103.079 669.908 216.382 653.878 356.146 653.878C495.914 653.878 609.217 669.908 609.217 689.684Z" fill="#ECECEC"/>
<path d="M142.183 237.455L183.357 226.984L169.738 173.359L142.183 237.455ZM199.228 313.58L188.686 272.074L105.429 293.248L94.4258 249.924L160.961 98.1838L193.959 89.7908L226.046 216.128L252.688 209.35L263.768 252.979L237.126 259.754L247.667 301.261L199.228 313.58Z" fill="#141414"/>
<path d="M387.385 175.021C387.385 160.436 384.467 148.606 378.638 139.541C372.804 130.476 365.31 125.944 356.147 125.944C346.567 125.944 338.913 130.476 333.188 139.541C327.458 148.606 324.599 160.436 324.599 175.021C324.599 189.61 327.458 201.387 333.188 210.344C338.913 219.306 346.567 223.785 356.147 223.785C365.31 223.785 372.804 219.306 378.638 210.344C384.467 201.387 387.385 189.61 387.385 175.021ZM437.679 175.021C437.679 188.776 435.594 201.435 431.431 213C427.263 224.567 421.536 234.57 414.248 243.011C406.956 251.45 398.368 258.015 388.48 262.704C378.584 267.393 367.808 269.738 356.147 269.738C344.482 269.738 333.656 267.393 323.66 262.704C313.665 258.015 305.02 251.45 297.733 243.011C290.441 234.57 284.77 224.567 280.709 213C276.648 201.435 274.617 188.776 274.617 175.021C274.617 161.267 276.648 148.606 280.709 137.041C284.77 125.475 290.441 115.471 297.733 107.03C305.02 98.5915 313.665 91.979 323.66 87.1811C333.656 82.3899 344.482 79.991 356.147 79.991C367.808 79.991 378.584 82.3899 388.48 87.1811C398.368 91.979 406.956 98.5915 414.248 107.03C421.536 115.471 427.263 125.475 431.431 137.041C435.594 148.606 437.679 161.267 437.679 175.021Z" fill="#141414"/>
<path d="M505.322 213.024L547.257 219.823L556.099 165.206L505.322 213.024ZM527.361 305.583L534.205 263.307L449.406 249.56L456.551 205.434L577.957 92.7488L611.566 98.1974L590.736 226.87L617.872 231.271L610.679 275.706L583.541 271.306L576.697 313.582L527.361 305.583Z" fill="#141414"/>
<path d="M271.857 25.1698C271.857 27.2749 272.176 29.312 272.816 31.2777C273.456 33.2451 274.383 34.9849 275.595 36.4953C276.806 38.004 278.293 39.2171 280.054 40.1329C281.813 41.0486 283.813 41.5039 286.054 41.5039C288.339 41.5039 290.363 41.035 292.124 40.0972C293.884 39.161 295.37 37.9123 296.582 36.356C297.793 34.8014 298.708 33.0515 299.326 31.1078C299.942 29.1625 300.251 27.1848 300.251 25.1698C300.251 23.0665 299.918 21.0294 299.256 19.062C298.594 17.0945 297.655 15.3565 296.444 13.8444C295.232 12.3357 293.747 11.1345 291.986 10.2425C290.225 9.35055 288.249 8.90372 286.054 8.90372C283.767 8.90372 281.733 9.37434 279.95 10.3105C278.166 11.25 276.68 12.4852 275.492 14.0177C274.302 15.5502 273.4 17.2882 272.782 19.2336C272.166 21.1789 271.857 23.1565 271.857 25.1698ZM285.986 49.8783C282.419 49.8783 279.183 49.18 276.28 47.7851C273.376 46.3902 270.886 44.5366 268.806 42.226C266.724 39.9154 265.112 37.2735 263.969 34.2985C262.826 31.3253 262.256 28.2824 262.256 25.1698C262.256 21.9214 262.86 18.8105 264.073 15.8356C265.283 12.8624 266.954 10.2323 269.079 7.94379C271.205 5.65525 273.731 3.83733 276.658 2.48663C279.584 1.13763 282.762 0.463135 286.191 0.463135C289.713 0.463135 292.923 1.18181 295.828 2.62425C298.731 4.06499 301.212 5.95257 303.268 8.28528C305.326 10.6197 306.927 13.2735 308.071 16.2485C309.212 19.2234 309.784 22.2425 309.784 25.3075C309.784 28.5576 309.19 31.6549 308.001 34.6077C306.811 37.5589 305.166 40.1668 303.062 42.4316C300.961 44.6963 298.444 46.5041 295.519 47.8531C292.592 49.2038 289.414 49.8783 285.986 49.8783Z" fill="#141414"/>
<path d="M323.366 31.6214C323.366 33.2235 323.607 34.6762 324.085 35.9793C324.566 37.2841 325.228 38.4156 326.075 39.3773C326.921 40.3372 327.916 41.0814 329.058 41.6063C330.201 42.133 331.435 42.3964 332.763 42.3964C334.087 42.3964 335.322 42.133 336.466 41.6063C337.608 41.0814 338.603 40.3372 339.449 39.3773C340.294 38.4156 340.958 37.2722 341.439 35.9453C341.917 34.6184 342.159 33.1556 342.159 31.5517C342.159 29.9971 341.917 28.5564 341.439 27.2295C340.958 25.9026 340.294 24.7575 339.449 23.7975C338.603 22.8359 337.608 22.0934 336.466 21.5668C335.322 21.0401 334.087 20.7767 332.763 20.7767C331.435 20.7767 330.201 21.052 329.058 21.6007C327.916 22.1495 326.921 22.9056 326.075 23.8655C325.228 24.8271 324.566 25.9705 324.085 27.2975C323.607 28.6244 323.366 30.0668 323.366 31.6214ZM332.763 50.2202C329.836 50.2202 327.206 49.7173 324.875 48.7115C322.544 47.7057 320.564 46.3431 318.943 44.6271C317.318 42.9112 316.072 40.9318 315.204 38.6909C314.335 36.4499 313.9 34.0917 313.9 31.6214C313.9 29.1052 314.335 26.7266 315.204 24.4839C316.072 22.2413 317.318 20.2619 318.943 18.5477C320.564 16.83 322.544 15.4708 324.875 14.4633C327.206 13.4575 329.836 12.9529 332.763 12.9529C335.688 12.9529 338.306 13.4575 340.615 14.4633C342.924 15.4708 344.89 16.83 346.513 18.5477C348.137 20.2619 349.383 22.2413 350.25 24.4839C351.12 26.7266 351.554 29.1052 351.554 31.6214C351.554 34.0917 351.12 36.4499 350.25 38.6909C349.383 40.9318 348.148 42.9112 346.547 44.6271C344.946 46.3431 342.982 47.7057 340.649 48.7115C338.318 49.7173 335.688 50.2202 332.763 50.2202Z" fill="#141414"/>
<path d="M376.175 42.3969C377.546 42.3969 378.815 42.0995 379.981 41.5049C381.147 40.9102 382.142 40.11 382.964 39.1025C383.786 38.0967 384.426 36.9295 384.884 35.6009C385.341 34.2757 385.57 32.9029 385.57 31.4842C385.57 29.9738 385.319 28.5671 384.816 27.264C384.312 25.9591 383.616 24.8276 382.723 23.866C381.832 22.9044 380.781 22.15 379.568 21.6012C378.356 21.0525 377.042 20.7772 375.626 20.7772C374.757 20.7772 373.866 20.9267 372.952 21.2241C372.035 21.5214 371.19 21.9444 370.412 22.4932C369.635 23.042 368.939 23.6842 368.321 24.4148C367.704 25.147 367.234 25.9489 366.915 26.8171V35.2594C367.738 37.3186 368.995 39.0227 370.687 40.3717C372.378 41.7224 374.209 42.3969 376.175 42.3969ZM379.26 50.2207C376.424 50.2207 373.956 49.5921 371.854 48.3331C369.75 47.0759 368.103 45.3718 366.915 43.2209V64.1541H357.725V13.5718H365.748V19.7476C367.076 17.6443 368.789 15.9844 370.894 14.7713C372.996 13.5599 375.421 12.9534 378.163 12.9534C380.587 12.9534 382.827 13.4444 384.884 14.4298C386.942 15.4135 388.715 16.7387 390.2 18.4088C391.686 20.0806 392.85 22.0464 393.698 24.3111C394.543 26.5759 394.966 28.968 394.966 31.4842C394.966 34.0922 394.577 36.5404 393.801 38.8273C393.024 41.1158 391.937 43.107 390.543 44.7992C389.147 46.4931 387.49 47.8183 385.57 48.78C383.65 49.7399 381.546 50.2207 379.26 50.2207Z" fill="#141414"/>
<path d="M414.79 50.2208C411.773 50.2208 408.822 49.74 405.943 48.78C403.061 47.8184 400.593 46.4456 398.535 44.6617L401.963 38.897C404.158 40.4516 406.296 41.6307 408.377 42.4309C410.457 43.2328 412.527 43.6321 414.584 43.6321C416.411 43.6321 417.853 43.2889 418.905 42.6025C419.956 41.9161 420.483 40.9324 420.483 39.6514C420.483 38.3703 419.865 37.4325 418.63 36.8378C417.396 36.2432 415.384 35.5568 412.595 34.7787C410.264 34.1382 408.274 33.5197 406.627 32.9251C404.982 32.3321 403.654 31.6559 402.651 30.8999C401.644 30.1455 400.912 29.2773 400.455 28.2936C399.997 27.3099 399.769 26.1308 399.769 24.758C399.769 22.9299 400.123 21.2819 400.832 19.8157C401.54 18.3528 402.535 17.1058 403.815 16.0762C405.095 15.0466 406.595 14.2583 408.309 13.7078C410.022 13.159 411.885 12.8838 413.899 12.8838C416.595 12.8838 419.121 13.2729 421.476 14.051C423.831 14.8291 425.992 16.0881 427.958 17.8262L424.253 23.3852C422.425 22.0125 420.654 21.0067 418.938 20.3661C417.225 19.7256 415.522 19.4045 413.831 19.4045C412.275 19.4045 410.972 19.7256 409.921 20.3661C408.868 21.0067 408.342 22.0362 408.342 23.4549C408.342 24.0954 408.467 24.6204 408.72 25.0333C408.97 25.4444 409.372 25.8114 409.921 26.1308C410.469 26.4519 411.189 26.7594 412.08 27.0568C412.973 27.3558 414.08 27.665 415.406 27.9844C417.875 28.6249 419.99 29.2654 421.751 29.906C423.511 30.5465 424.95 31.2788 426.072 32.1011C427.192 32.9251 428.014 33.8748 428.542 34.9503C429.065 36.0257 429.328 37.3187 429.328 38.8274C429.328 42.3528 428.026 45.1306 425.42 47.1677C422.815 49.2031 419.27 50.2208 414.79 50.2208Z" fill="#141414"/>
<path d="M437.078 39.1711H446.268V49.535H437.078V39.1711ZM437.078 0.32373H446.268V31.2097H437.078V0.32373Z" fill="#141414"/>
<path d="M330.831 459.987H391.125V464.931H330.831V459.987Z" fill="#2B454E"/>
<path d="M330.831 466.426H391.125V471.369H330.831V466.426Z" fill="#2B454E"/>
<path d="M330.831 472.864H391.125V477.806H330.831V472.864Z" fill="#2B454E"/>
<path d="M330.831 479.301H391.125V484.244H330.831V479.301Z" fill="#2B454E"/>
<path d="M330.831 485.739H391.125V490.681H330.831V485.739Z" fill="#2B454E"/>
<path d="M302.594 614.169H417.225V619.111H302.594V614.169Z" fill="#2B454E"/>
<path d="M302.594 620.606H417.225V625.549H302.594V620.606Z" fill="#2B454E"/>
<path d="M302.594 627.044H417.225V631.986H302.594V627.044Z" fill="#2B454E"/>
<path d="M302.594 633.481H417.225V638.424H302.594V633.481Z" fill="#2B454E"/>
<path d="M302.594 639.92H417.225V644.863H302.594V639.92Z" fill="#2B454E"/>
<path d="M252.293 419.131C252.348 418.461 227.201 410.039 227.201 410.039L228.698 323.586L262.047 316.422L252.293 419.131Z" fill="#FBC600"/>
<g opacity="0.2">
<path d="M252.293 419.131C252.348 418.461 227.201 410.038 227.201 410.038L228.698 323.585L262.047 316.421L252.293 419.131Z" fill="#141414"/>
</g>
<path d="M482.62 453.067C482.797 452.419 509.308 453.168 509.308 453.168L537.636 371.485L508.789 353.277L482.62 453.067Z" fill="#FBC600"/>
<g opacity="0.2">
<path d="M482.62 453.067C482.797 452.419 509.308 453.168 509.308 453.168L537.636 371.485L508.789 353.276L482.62 453.067Z" fill="#141414"/>
</g>
<path d="M247.438 450.983C247.438 450.983 256.785 311.169 264.969 265.172C264.969 265.172 433.764 277.917 524.884 312.753C524.884 312.753 477.875 476.069 475.444 484.174C475.444 484.174 356.583 460.765 247.438 450.983Z" fill="#FBC600"/>
<g opacity="0.1">
<path d="M398.12 283.819C395.376 300.654 392.601 317.484 389.726 334.298L381.025 384.722L380.555 384.008L437.112 397.454L465.36 404.306L493.575 411.292L465.21 404.94L436.876 398.451L380.269 385.22L379.697 385.085L379.801 384.506L388.809 334.136C391.837 317.35 394.962 300.583 398.12 283.819Z" fill="#141414"/>
</g>
<g opacity="0.1">
<path d="M391.915 293.415C391.907 292.636 391.564 291.872 390.983 291.381C390.403 290.89 389.642 290.689 388.951 290.769C387.526 290.934 386.603 292.212 386.623 293.415C386.601 294.616 387.523 295.902 388.951 296.063C389.642 296.141 390.404 295.943 390.983 295.45C391.564 294.957 391.907 294.193 391.915 293.415ZM391.915 293.415C391.948 294.957 390.717 296.544 388.951 296.699C388.095 296.779 387.165 296.507 386.469 295.898C385.773 295.292 385.357 294.359 385.352 293.415C385.355 292.472 385.769 291.537 386.467 290.929C387.161 290.317 388.095 290.049 388.951 290.129C390.718 290.283 391.946 291.872 391.915 293.415Z" fill="#141414"/>
</g>
<g opacity="0.1">
<path d="M388.95 314.219C388.944 313.441 388.599 312.676 388.018 312.185C387.438 311.694 386.677 311.494 385.986 311.574C384.562 311.738 383.638 313.016 383.658 314.219C383.636 315.42 384.558 316.706 385.986 316.868C386.677 316.946 387.439 316.747 388.02 316.254C388.599 315.762 388.942 314.997 388.95 314.219ZM388.95 314.219C388.983 315.762 387.752 317.349 385.986 317.503C385.13 317.583 384.2 317.311 383.504 316.703C382.808 316.096 382.392 315.164 382.387 314.219C382.392 313.276 382.806 312.342 383.502 311.733C384.197 311.122 385.13 310.853 385.986 310.933C387.753 311.088 388.983 312.676 388.95 314.219Z" fill="#141414"/>
</g>
<g opacity="0.1">
<path d="M385.3 336.202C385.293 335.424 384.949 334.659 384.37 334.168C383.789 333.677 383.027 333.477 382.338 333.555C380.913 333.721 379.988 334.999 380.01 336.202C379.986 337.403 380.91 338.688 382.338 338.851C383.029 338.929 383.791 338.728 384.37 338.236C384.951 337.745 385.293 336.98 385.3 336.202ZM385.3 336.202C385.333 337.745 384.103 339.33 382.338 339.484C381.482 339.564 380.552 339.294 379.855 338.686C379.159 338.078 378.743 337.145 378.738 336.202C378.742 335.259 379.156 334.323 379.854 333.716C380.548 333.105 381.482 332.836 382.338 332.916C384.105 333.071 385.333 334.659 385.3 336.202Z" fill="#141414"/>
</g>
<g opacity="0.1">
<path d="M381.65 358.185C381.643 357.407 381.298 356.643 380.718 356.152C380.137 355.661 379.376 355.46 378.685 355.538C377.261 355.705 376.337 356.984 376.358 358.185C376.336 359.386 377.257 360.673 378.685 360.836C379.376 360.912 380.139 360.712 380.719 360.219C381.298 359.728 381.641 358.963 381.65 358.185ZM381.65 358.185C381.682 359.728 380.451 361.315 378.685 361.469C377.83 361.548 376.899 361.277 376.203 360.669C375.507 360.063 375.091 359.13 375.086 358.185C375.091 357.242 375.505 356.308 376.201 355.7C376.896 355.09 377.83 354.82 378.685 354.899C380.453 355.054 381.682 356.644 381.65 358.185Z" fill="#141414"/>
</g>
<g opacity="0.1">
<path d="M394.087 393.244C394.08 392.466 393.736 391.701 393.155 391.21C392.574 390.719 391.814 390.519 391.124 390.599C389.698 390.763 388.775 392.043 388.797 393.244C388.773 394.445 389.697 395.731 391.124 395.894C391.814 395.971 392.576 395.77 393.157 395.279C393.736 394.787 394.08 394.022 394.087 393.244ZM394.087 393.244C394.119 394.787 392.888 396.373 391.124 396.528C390.267 396.608 389.337 396.336 388.641 395.728C387.944 395.121 387.529 394.188 387.523 393.244C387.529 392.301 387.943 391.366 388.639 390.758C389.333 390.148 390.267 389.878 391.124 389.958C392.892 390.113 394.119 391.703 394.087 393.244Z" fill="#141414"/>
</g>
<g opacity="0.1">
<path d="M414.823 398.305C414.815 397.527 414.472 396.762 413.891 396.271C413.311 395.78 412.55 395.58 411.859 395.658C410.435 395.825 409.511 397.104 409.531 398.305C409.509 399.506 410.431 400.792 411.859 400.956C412.55 401.032 413.312 400.832 413.891 400.339C414.472 399.848 414.815 399.083 414.823 398.305ZM414.823 398.305C414.856 399.848 413.625 401.435 411.859 401.589C411.003 401.667 410.073 401.397 409.377 400.789C408.681 400.181 408.265 399.25 408.26 398.305C408.265 397.362 408.677 396.428 409.375 395.82C410.07 395.21 411.003 394.939 411.859 395.019C413.627 395.174 414.854 396.764 414.823 398.305Z" fill="#141414"/>
</g>
<g opacity="0.1">
<path d="M435.558 403.366C435.551 402.588 435.206 401.824 434.627 401.333C434.045 400.842 433.284 400.641 432.595 400.719C431.171 400.884 430.245 402.164 430.267 403.366C430.244 404.568 431.167 405.854 432.595 406.015C433.286 406.093 434.047 405.893 434.627 405.4C435.206 404.909 435.551 404.145 435.558 403.366ZM435.558 403.366C435.59 404.909 434.359 406.496 432.595 406.651C431.738 406.729 430.809 406.457 430.113 405.85C429.417 405.242 428.999 404.311 428.994 403.366C428.999 402.424 429.413 401.489 430.11 400.881C430.806 400.269 431.738 400.001 432.595 400.079C434.363 400.235 435.59 401.824 435.558 403.366Z" fill="#141414"/>
</g>
<g opacity="0.1">
<path d="M456.296 408.429C456.288 407.651 455.945 406.887 455.364 406.396C454.783 405.905 454.023 405.704 453.332 405.782C451.907 405.947 450.984 407.227 451.004 408.429C450.982 409.631 451.904 410.915 453.332 411.078C454.023 411.156 454.785 410.956 455.366 410.463C455.945 409.972 456.288 409.208 456.296 408.429ZM456.296 408.429C456.328 409.972 455.097 411.557 453.332 411.712C452.476 411.792 451.546 411.52 450.85 410.913C450.153 410.305 449.738 409.372 449.732 408.429C449.738 407.485 450.15 406.55 450.848 405.942C451.542 405.332 452.476 405.064 453.332 405.142C455.099 405.298 456.328 406.887 456.296 408.429Z" fill="#141414"/>
</g>
<g opacity="0.1">
<path d="M477.021 413.719C477.074 412.942 476.788 412.154 476.248 411.62C475.709 411.084 474.965 410.827 474.269 410.852C472.836 410.907 471.817 412.111 471.746 413.313C471.63 414.507 472.452 415.861 473.863 416.131C474.546 416.264 475.321 416.123 475.936 415.676C476.552 415.231 476.955 414.493 477.021 413.719ZM477.021 413.719C476.933 415.26 475.585 416.746 473.814 416.763C472.953 416.779 472.046 416.437 471.399 415.776C470.753 415.117 470.408 414.155 470.478 413.212C470.552 412.273 471.04 411.372 471.78 410.82C472.52 410.266 473.471 410.069 474.318 410.214C476.068 410.504 477.17 412.184 477.021 413.719Z" fill="#141414"/>
</g>
<g opacity="0.1">
<path d="M377.999 380.167C377.992 379.389 377.648 378.626 377.069 378.135C376.487 377.642 375.726 377.442 375.037 377.522C373.612 377.686 372.687 378.966 372.709 380.167C372.685 381.368 373.609 382.654 375.037 382.817C375.728 382.894 376.488 382.695 377.069 382.202C377.649 381.71 377.992 380.945 377.999 380.167ZM377.999 380.167C378.031 381.71 376.801 383.296 375.037 383.451C374.181 383.531 373.25 383.259 372.554 382.653C371.857 382.044 371.441 381.112 371.436 380.167C371.441 379.224 371.855 378.29 372.551 377.681C373.247 377.071 374.179 376.801 375.037 376.881C376.804 377.037 378.031 378.626 377.999 380.167Z" fill="#141414"/>
</g>
<g opacity="0.2">
<path d="M358.353 388.599C354.122 414.746 329.506 432.504 303.373 428.267C277.24 424.027 259.485 399.395 263.715 373.248C267.946 347.102 292.562 329.342 318.696 333.581C344.828 337.82 362.582 362.451 358.353 388.599Z" fill="#141414"/>
</g>
<path d="M348.991 387.078C345.598 408.049 325.857 422.291 304.897 418.892C283.939 415.491 269.701 395.736 273.093 374.769C276.486 353.799 296.229 339.555 317.186 342.954C338.144 346.353 352.386 366.108 348.991 387.078Z" fill="#141414"/>
<path d="M299.729 365.35L308.717 366.807L307.263 375.799L298.275 374.342L299.729 365.35Z" fill="#FBC600"/>
<path d="M292.198 354.901L301.186 356.358L299.731 365.35L290.744 363.893L292.198 354.901Z" fill="#FBC600"/>
<path d="M328.145 360.728L337.133 362.185L335.679 371.177L326.691 369.72L328.145 360.728Z" fill="#FBC600"/>
<path d="M286.407 390.668L295.395 392.125L293.94 401.117L284.953 399.66L286.407 390.668Z" fill="#FBC600"/>
<path d="M322.354 396.497L331.342 397.954L329.888 406.946L320.9 405.489L322.354 396.497Z" fill="#FBC600"/>
<path d="M296.85 383.133L305.838 384.59L304.384 393.582L295.396 392.125L296.85 383.133Z" fill="#FBC600"/>
<path d="M307.278 375.698L316.264 377.155L314.809 386.147L305.824 384.69L307.278 375.698Z" fill="#FBC600"/>
<path d="M317.702 368.264L326.689 369.72L325.235 378.714L316.248 377.257L317.702 368.264Z" fill="#FBC600"/>
<path d="M314.824 386.047L323.812 387.506L322.357 396.497L313.368 395.039L314.824 386.047Z" fill="#FBC600"/>
<path d="M486.301 412.118C480.185 437.889 454.343 453.809 428.587 447.682C402.829 441.554 386.908 415.695 393.025 389.927C399.144 364.158 424.983 348.234 450.74 354.364C476.497 360.49 492.418 386.35 486.301 412.118Z" fill="#FBC600"/>
<g opacity="0.2">
<path d="M486.303 412.118C480.187 437.889 454.345 453.809 428.589 447.682C402.831 441.554 386.909 415.695 393.027 389.927C399.146 364.158 424.985 348.234 450.742 354.364C476.499 360.49 492.42 386.35 486.303 412.118Z" fill="#141414"/>
</g>
<g opacity="0.2">
<path d="M486.301 412.122C486.08 413.066 485.829 413.979 485.547 414.891L392.119 394.95C392.34 393.281 392.639 391.613 393.031 389.928C399.15 364.162 424.992 348.234 450.754 354.358C476.503 360.479 492.42 386.339 486.301 412.122Z" fill="#141414"/>
</g>
<path d="M477.067 409.922C472.161 430.588 451.438 443.358 430.781 438.445C410.123 433.528 397.356 412.791 402.26 392.124C407.168 371.457 427.89 358.688 448.549 363.602C469.205 368.518 481.974 389.254 477.067 409.922Z" fill="#141414"/>
<path d="M440.472 377.912L449.334 380.02L438.859 424.134L429.997 422.026L440.472 377.912Z" fill="#FBC600"/>
<path d="M489.083 411.221L390.947 387.882C397.387 360.77 424.581 344.018 451.674 350.46C478.768 356.904 495.522 384.109 489.083 411.221Z" fill="#FBC600"/>
<g opacity="0.2">
<path d="M489.083 411.221L390.947 387.882C397.387 360.77 424.581 344.018 451.674 350.46C478.768 356.904 495.522 384.109 489.083 411.221Z" fill="#141414"/>
</g>
<g opacity="0.1">
<path d="M356.266 429.536C356.514 425.702 357.923 421.813 360.699 418.738C362.07 417.186 363.897 415.972 365.913 415.229C367.935 414.487 370.121 414.354 372.194 414.533C374.305 414.777 376.461 415.523 378.218 416.853C379.943 418.214 381.266 419.985 382.043 421.893C383.643 425.695 383.819 429.759 383.043 433.529C382.405 429.761 381.43 426.103 379.665 423.101C377.911 420.076 375.137 418.194 371.831 417.9C368.459 417.48 365.169 418.388 362.52 420.629C359.868 422.863 357.846 426.064 356.266 429.536Z" fill="#141414"/>
</g>
<path d="M260.588 331.705C260.985 326.579 261.561 321.48 262.046 316.368C262.591 311.264 263.152 306.162 263.771 301.07C264.362 295.972 265.024 290.885 265.676 285.796C266.315 280.706 267.051 275.63 267.734 270.545L267.917 269.187L269.293 269.274C280.352 269.97 291.388 270.864 302.406 271.999C307.916 272.565 313.42 273.203 318.914 273.912C324.4 274.702 329.892 275.427 335.347 276.426L302.209 274.374L269.109 272.232L270.666 270.961C269.914 276.034 269.214 281.116 268.418 286.185C267.634 291.253 266.861 296.327 266.016 301.388C265.201 306.453 264.326 311.511 263.435 316.565C262.486 321.611 261.625 326.671 260.588 331.705Z" fill="white"/>
<path d="M268.561 370.469C269.673 364.309 272.471 358.437 276.23 353.326C277.163 352.04 278.23 350.853 279.253 349.629C280.362 348.486 281.515 347.378 282.652 346.253C283.893 345.244 285.146 344.243 286.42 343.273C287.773 342.414 289.109 341.518 290.484 340.696C291.934 339.999 293.372 339.281 294.834 338.62L299.389 337.043L304.102 336.07C305.683 335.837 307.291 335.789 308.88 335.67C315.27 335.504 321.559 336.87 327.333 339.209C321.189 338.057 315.067 337.417 309.029 337.995C303.011 338.555 297.16 340.356 291.929 343.306C286.657 346.185 281.988 350.158 278.043 354.772C274.114 359.41 270.863 364.664 268.561 370.469Z" fill="white"/>
<path d="M400.775 383.425C402.728 377.477 406.31 372.051 410.736 367.508C411.84 366.363 413.059 365.333 414.242 364.264C415.497 363.284 416.792 362.346 418.074 361.39C419.443 360.562 420.823 359.745 422.217 358.958C423.675 358.294 425.122 357.592 426.599 356.967C428.129 356.478 429.655 355.965 431.193 355.511L435.922 354.578L440.723 354.267C442.322 354.256 443.922 354.431 445.511 354.531C451.864 355.251 457.903 357.472 463.299 360.586C457.372 358.596 451.397 357.118 445.339 356.853C439.298 356.578 433.256 357.553 427.669 359.752C422.049 361.875 416.877 365.165 412.336 369.19C407.804 373.242 403.859 377.994 400.775 383.425Z" fill="white"/>
<path d="M252.823 537.133C240.544 537.133 213.665 534.371 196.369 512.115C174.239 483.645 182.237 429.011 182.588 426.699L192.196 428.158C192.116 428.685 184.48 480.981 204.038 506.147C223.161 530.75 257.845 527.218 258.193 527.175L259.286 536.837C258.906 536.882 256.529 537.133 252.823 537.133Z" fill="#FBC600"/>
<g opacity="0.4">
<path d="M252.823 537.133C240.544 537.133 213.665 534.371 196.369 512.115C174.239 483.645 182.237 429.011 182.588 426.699L192.196 428.158C192.116 428.685 184.48 480.981 204.038 506.147C223.161 530.75 257.845 527.218 258.193 527.175L259.286 536.837C258.906 536.882 256.529 537.133 252.823 537.133Z" fill="white"/>
</g>
<path d="M195.023 434.774C193.271 434.774 191.481 434.628 189.66 434.333C173.453 431.706 166.278 422 163.111 414.322C159.938 406.625 159.205 397.315 160.931 386.652L181.485 389.986C180.415 396.591 180.726 402.412 182.361 406.376C183.526 409.201 185.787 412.596 192.989 413.765C196.279 414.296 199.836 414.016 203.561 408.394C206.437 404.055 208.164 398.147 208.77 394.408L229.324 397.74C228.847 400.684 226.833 410.978 220.915 419.908C214.478 429.621 205.42 434.774 195.023 434.774Z" fill="#FBC600"/>
<path d="M273.122 564.96C273.086 564.517 255.708 561.743 255.708 561.743L247.282 504.988L268.332 496.668L273.122 564.96Z" fill="#FBC600"/>
<g opacity="0.2">
<path d="M273.114 564.96C273.079 564.517 255.7 561.743 255.7 561.743L247.274 504.988L268.324 496.668L273.114 564.96Z" fill="#141414"/>
</g>
<path d="M444.937 565.067C444.984 564.625 462.42 562.236 462.42 562.236L472.097 505.681L451.235 496.897L444.937 565.067Z" fill="#FBC600"/>
<g opacity="0.2">
<path d="M444.937 565.067C444.984 564.625 462.42 562.236 462.42 562.236L472.097 505.681L451.235 496.897L444.937 565.067Z" fill="#141414"/>
</g>
<path d="M265.889 483.954C265.889 483.954 406.443 477.948 453.921 485.871C453.921 485.871 439.99 621.968 439.236 624.607C439.236 624.607 299.421 624.222 277.565 624.596C277.565 624.596 265.712 534.097 265.889 483.954Z" fill="#FBC600"/>
<g opacity="0.2">
<path d="M308.578 521.249C308.578 521.249 385.307 518.225 411.227 522.218C411.227 522.218 403.621 590.847 403.211 592.178C403.211 592.178 326.883 591.98 314.951 592.169C314.951 592.169 309.706 545.198 308.578 521.249Z" fill="#141414"/>
</g>
<g opacity="0.2">
<path d="M319.062 592.145C317.304 592.146 315.911 592.169 314.936 592.181C314.936 592.181 309.704 545.201 308.573 521.25C308.573 521.25 310.319 521.182 313.367 521.082L319.062 592.145Z" fill="#141414"/>
</g>
<path d="M346.086 548.133C344.894 551.915 340.874 554.011 337.1 552.822C333.324 551.631 331.229 547.606 332.419 543.824C333.609 540.047 337.631 537.951 341.41 539.142C345.179 540.331 347.276 544.356 346.086 548.133ZM341.706 538.188C337.405 536.834 332.823 539.223 331.468 543.523C330.111 547.83 332.502 552.412 336.802 553.768C341.1 555.124 345.677 552.737 347.032 548.433C348.386 544.133 346.003 539.544 341.706 538.188ZM346.086 548.133C344.894 551.915 340.874 554.011 337.1 552.822C333.324 551.631 331.229 547.606 332.419 543.824C333.609 540.047 337.631 537.951 341.41 539.142C345.179 540.331 347.276 544.356 346.086 548.133ZM341.706 538.188C337.405 536.834 332.823 539.223 331.468 543.523C330.111 547.83 332.502 552.412 336.802 553.768C341.1 555.124 345.677 552.737 347.032 548.433C348.386 544.133 346.003 539.544 341.706 538.188ZM346.086 548.133C344.894 551.915 340.874 554.011 337.1 552.822C333.324 551.631 331.229 547.606 332.419 543.824C333.609 540.047 337.631 537.951 341.41 539.142C345.179 540.331 347.276 544.356 346.086 548.133ZM347.032 548.433C348.386 544.133 346.003 539.544 341.706 538.188C337.405 536.834 332.823 539.223 331.468 543.523C330.111 547.83 332.502 552.412 336.802 553.768C341.1 555.124 345.677 552.737 347.032 548.433ZM348.244 548.812C346.682 553.778 341.378 556.544 336.419 554.981C331.461 553.416 328.697 548.109 330.261 543.144C331.824 538.18 337.132 535.417 342.089 536.982C347.042 538.543 349.808 543.851 348.244 548.812ZM344.426 529.561C335.358 526.705 325.702 531.744 322.847 540.807C319.992 549.871 325.02 559.541 334.083 562.397C343.139 565.252 352.802 560.216 355.655 551.15C358.51 542.089 353.482 532.415 344.426 529.561ZM346.086 548.133C344.894 551.915 340.874 554.011 337.1 552.822C333.324 551.631 331.229 547.606 332.419 543.824C333.609 540.047 337.631 537.951 341.41 539.142C345.179 540.331 347.276 544.356 346.086 548.133ZM341.706 538.188C337.405 536.834 332.823 539.223 331.468 543.523C330.111 547.83 332.502 552.412 336.802 553.768C341.1 555.124 345.677 552.737 347.032 548.433C348.386 544.133 346.003 539.544 341.706 538.188ZM346.086 548.133C344.894 551.915 340.874 554.011 337.1 552.822C333.324 551.631 331.229 547.606 332.419 543.824C333.609 540.047 337.631 537.951 341.41 539.142C345.179 540.331 347.276 544.356 346.086 548.133ZM341.706 538.188C337.405 536.834 332.823 539.223 331.468 543.523C330.111 547.83 332.502 552.412 336.802 553.768C341.1 555.124 345.677 552.737 347.032 548.433C348.386 544.133 346.003 539.544 341.706 538.188ZM346.086 548.133C344.894 551.915 340.874 554.011 337.1 552.822C333.324 551.631 331.229 547.606 332.419 543.824C333.609 540.047 337.631 537.951 341.41 539.142C345.179 540.331 347.276 544.356 346.086 548.133ZM341.706 538.188C337.405 536.834 332.823 539.223 331.468 543.523C330.111 547.83 332.502 552.412 336.802 553.768C341.1 555.124 345.677 552.737 347.032 548.433C348.386 544.133 346.003 539.544 341.706 538.188Z" fill="#FBC600"/>
<path d="M337.449 562.709L331.141 560.721L330.083 565.296L335.694 567.066L337.449 562.709Z" fill="#FBC600"/>
<path d="M326.113 556.796L323.059 550.925L319.074 553.416L321.792 558.634L326.113 556.796Z" fill="#FBC600"/>
<path d="M322.275 544.592L324.263 538.28L319.688 537.22L317.92 542.834L322.275 544.592Z" fill="#FBC600"/>
<path d="M328.186 533.247L334.052 530.19L331.566 526.203L326.346 528.923L328.186 533.247Z" fill="#FBC600"/>
<path d="M340.377 529.406L346.685 531.396L347.744 526.818L342.132 525.049L340.377 529.406Z" fill="#FBC600"/>
<path d="M351.717 535.319L354.772 541.189L358.756 538.7L356.038 533.48L351.717 535.319Z" fill="#FBC600"/>
<path d="M355.557 547.522L353.569 553.834L358.144 554.895L359.912 549.279L355.557 547.522Z" fill="#FBC600"/>
<path d="M349.646 558.866L343.78 561.925L346.265 565.91L351.484 563.191L349.646 558.866Z" fill="#FBC600"/>
<path d="M370.492 569.451C369.039 571.687 366.051 572.319 363.817 570.865C361.586 569.411 360.954 566.422 362.409 564.183C363.863 561.95 366.849 561.318 369.085 562.773C371.314 564.229 371.946 567.217 370.492 569.451ZM369.45 562.21C366.907 560.552 363.503 561.274 361.847 563.817C360.19 566.366 360.91 569.769 363.453 571.426C365.997 573.084 369.396 572.363 371.053 569.817C372.708 567.275 371.992 563.867 369.45 562.21ZM370.492 569.451C369.039 571.687 366.051 572.319 363.817 570.865C361.586 569.411 360.954 566.422 362.409 564.183C363.863 561.95 366.849 561.318 369.085 562.773C371.314 564.229 371.946 567.217 370.492 569.451ZM369.45 562.21C366.907 560.552 363.503 561.274 361.847 563.817C360.19 566.366 360.91 569.769 363.453 571.426C365.997 573.084 369.396 572.363 371.053 569.817C372.708 567.275 371.992 563.867 369.45 562.21ZM370.492 569.451C369.039 571.687 366.051 572.319 363.817 570.865C361.586 569.411 360.954 566.422 362.409 564.183C363.863 561.95 366.849 561.318 369.085 562.773C371.314 564.229 371.946 567.217 370.492 569.451ZM371.053 569.817C372.708 567.275 371.992 563.867 369.45 562.21C366.907 560.552 363.503 561.274 361.847 563.817C360.19 566.366 360.91 569.769 363.453 571.426C365.997 573.084 369.396 572.363 371.053 569.817ZM371.771 570.282C369.859 573.22 365.92 574.054 362.987 572.143C360.054 570.231 359.221 566.29 361.131 563.352C363.043 560.416 366.985 559.584 369.917 561.495C372.847 563.405 373.681 567.348 371.771 570.282ZM372.773 557.106C367.409 553.613 360.236 555.134 356.745 560.494C353.258 565.858 354.771 573.036 360.131 576.529C365.489 580.019 372.664 578.502 376.153 573.14C379.644 567.781 378.129 560.596 372.773 557.106ZM370.492 569.451C369.039 571.687 366.051 572.319 363.817 570.865C361.586 569.411 360.954 566.422 362.409 564.183C363.863 561.95 366.849 561.318 369.085 562.773C371.314 564.229 371.946 567.217 370.492 569.451ZM369.45 562.21C366.907 560.552 363.503 561.274 361.847 563.817C360.19 566.366 360.91 569.769 363.453 571.426C365.997 573.084 369.396 572.363 371.053 569.817C372.708 567.275 371.992 563.867 369.45 562.21ZM370.492 569.451C369.039 571.687 366.051 572.319 363.817 570.865C361.586 569.411 360.954 566.422 362.409 564.183C363.863 561.95 366.849 561.318 369.085 562.773C371.314 564.229 371.946 567.217 370.492 569.451ZM369.45 562.21C366.907 560.552 363.503 561.274 361.847 563.817C360.19 566.366 360.91 569.769 363.453 571.426C365.997 573.084 369.396 572.363 371.053 569.817C372.708 567.275 371.992 563.867 369.45 562.21ZM370.492 569.451C369.039 571.687 366.051 572.319 363.817 570.865C361.586 569.411 360.954 566.422 362.409 564.183C363.863 561.95 366.849 561.318 369.085 562.773C371.314 564.229 371.946 567.217 370.492 569.451ZM369.45 562.21C366.907 560.552 363.503 561.274 361.847 563.817C360.19 566.366 360.91 569.769 363.453 571.426C365.997 573.084 369.396 572.363 371.053 569.817C372.708 567.275 371.992 563.867 369.45 562.21Z" fill="#DCDCDC"/>
<path d="M362.258 577.342L358.527 574.91L357.013 577.688L360.333 579.85L362.258 577.342Z" fill="#DCDCDC"/>
<path d="M355.977 571.457L355.057 567.097L352.023 567.992L352.842 571.868L355.977 571.457Z" fill="#DCDCDC"/>
<path d="M355.689 562.848L358.121 559.113L355.344 557.598L353.182 560.919L355.689 562.848Z" fill="#DCDCDC"/>
<path d="M361.574 556.56L365.93 555.637L365.038 552.603L361.164 553.423L361.574 556.56Z" fill="#DCDCDC"/>
<path d="M370.176 556.275L373.907 558.708L375.419 555.931L372.101 553.765L370.176 556.275Z" fill="#DCDCDC"/>
<path d="M376.461 562.162L377.381 566.52L380.413 565.627L379.597 561.75L376.461 562.162Z" fill="#DCDCDC"/>
<path d="M376.74 570.769L374.311 574.504L377.088 576.019L379.248 572.697L376.74 570.769Z" fill="#DCDCDC"/>
<path d="M370.863 577.057L366.507 577.978L367.397 581.013L371.274 580.195L370.863 577.057Z" fill="#DCDCDC"/>
<path d="M450.537 608.766L455.94 609.773L471.385 505.069L465.225 503.937L450.537 608.766Z" fill="#FBC600"/>
<path d="M403.21 592.172L411.23 522.212L465.23 503.939C465.23 503.939 450.541 609.897 450.542 608.767L403.21 592.172Z" fill="#FBC600"/>
<g opacity="0.4">
<path d="M403.212 592.172L411.232 522.212L465.232 503.939C465.232 503.939 450.543 609.897 450.544 608.767L403.212 592.172Z" fill="white"/>
</g>
<path d="M272.342 525.048C271.463 519.253 270.987 513.41 270.626 507.564C270.461 504.638 270.386 501.709 270.322 498.78C270.263 495.85 270.212 492.919 270.298 489.988L270.322 489.218L271.071 489.178C281.797 488.602 292.517 487.897 303.251 487.426C313.979 486.898 324.711 486.417 335.448 486.079C324.743 487.05 314.033 487.876 303.32 488.653C292.611 489.49 281.889 490.092 271.174 490.822L271.947 490.013L271.903 498.762L272.004 507.515C272.02 510.434 272.072 513.354 272.157 516.275L272.342 525.048Z" fill="white"/>
<path d="M418.766 523.241C422.11 521.65 425.508 520.172 428.946 518.808C432.373 517.41 435.834 516.09 439.331 514.875C442.835 513.677 446.351 512.506 449.927 511.513C453.496 510.505 457.099 509.576 460.779 508.974L461.684 508.826L461.523 509.69C460.676 514.219 459.788 518.743 458.74 523.241C459.133 518.64 459.688 514.064 460.279 509.492L461.022 510.209C457.455 511.061 453.917 512.056 450.389 513.099C446.864 514.153 443.35 515.266 439.846 516.409L418.766 523.241Z" fill="white"/>
<g opacity="0.1">
<path d="M295.711 484.244L296.621 501.743L297.399 519.246L298.747 554.257L299.801 589.28L300.222 606.797L300.512 624.315L299.601 606.819L298.823 589.314L297.477 554.302L296.424 519.279L296.001 501.764L295.711 484.244Z" fill="#141414"/>
</g>
<g opacity="0.1">
<path d="M290.702 494.791C290.541 494.03 290.053 493.349 289.388 492.983C288.721 492.616 287.936 492.569 287.274 492.783C285.911 493.228 285.257 494.664 285.515 495.838C285.731 497.02 286.889 498.097 288.32 497.975C289.013 497.915 289.721 497.569 290.191 496.969C290.663 496.374 290.848 495.556 290.702 494.791ZM290.702 494.791C291.038 496.298 290.145 498.096 288.446 498.595C287.622 498.845 286.656 498.762 285.855 498.303C285.052 497.848 284.459 497.015 284.267 496.091C284.086 495.165 284.306 494.166 284.87 493.432C285.432 492.696 286.293 492.248 287.147 492.156C288.911 491.959 290.427 493.272 290.702 494.791Z" fill="#141414"/>
</g>
<g opacity="0.1">
<path d="M291.906 515.773C291.747 515.012 291.258 514.329 290.592 513.964C289.925 513.597 289.141 513.551 288.478 513.765C287.115 514.209 286.461 515.646 286.72 516.82C286.935 518.003 288.093 519.08 289.524 518.956C290.217 518.896 290.925 518.55 291.397 517.952C291.867 517.355 292.052 516.536 291.906 515.773ZM291.906 515.773C292.243 517.28 291.349 519.076 289.65 519.577C288.827 519.826 287.862 519.744 287.059 519.285C286.256 518.828 285.664 517.996 285.472 517.071C285.292 516.147 285.511 515.147 286.074 514.414C286.636 513.679 287.497 513.228 288.353 513.138C290.115 512.941 291.633 514.255 291.906 515.773Z" fill="#141414"/>
</g>
<g opacity="0.1">
<path d="M292.669 538.044C292.507 537.283 292.018 536.6 291.355 536.235C290.687 535.868 289.901 535.822 289.241 536.036C287.878 536.479 287.224 537.917 287.482 539.091C287.696 540.273 288.855 541.35 290.287 541.226C290.979 541.167 291.687 540.82 292.158 540.222C292.63 539.626 292.815 538.807 292.669 538.044ZM292.669 538.044C293.005 539.551 292.112 541.347 290.411 541.848C289.589 542.096 288.623 542.014 287.822 541.556C287.018 541.099 286.426 540.266 286.234 539.342C286.052 538.418 286.273 537.417 286.837 536.685C287.399 535.949 288.26 535.499 289.114 535.409C290.878 535.212 292.394 536.525 292.669 538.044Z" fill="#141414"/>
</g>
<g opacity="0.1">
<path d="M293.434 560.316C293.273 559.555 292.786 558.872 292.12 558.506C291.453 558.139 290.669 558.093 290.007 558.307C288.643 558.751 287.99 560.188 288.248 561.362C288.463 562.545 289.621 563.622 291.052 563.498C291.745 563.438 292.453 563.092 292.925 562.494C293.395 561.897 293.58 561.079 293.434 560.316ZM293.434 560.316C293.771 561.823 292.877 563.619 291.178 564.12C290.355 564.368 289.389 564.286 288.587 563.828C287.784 563.37 287.192 562.538 287 561.614C286.818 560.689 287.039 559.689 287.602 558.956C288.164 558.221 289.025 557.771 289.881 557.681C291.643 557.483 293.161 558.797 293.434 560.316Z" fill="#141414"/>
</g>
<g opacity="0.1">
<path d="M294.196 582.586C294.035 581.825 293.546 581.142 292.882 580.777C292.215 580.41 291.429 580.364 290.768 580.578C289.405 581.022 288.751 582.459 289.009 583.633C289.223 584.816 290.383 585.893 291.814 585.769C292.507 585.709 293.215 585.363 293.685 584.765C294.157 584.168 294.342 583.349 294.196 582.586ZM294.196 582.586C294.531 584.093 293.639 585.889 291.938 586.39C291.116 586.64 290.15 586.557 289.349 586.098C288.546 585.641 287.953 584.809 287.761 583.884C287.58 582.96 287.8 581.96 288.364 581.227C288.924 580.492 289.787 580.041 290.641 579.951C292.405 579.754 293.921 581.068 294.196 582.586Z" fill="#141414"/>
</g>
<g opacity="0.1">
<path d="M294.962 604.856C294.8 604.095 294.313 603.412 293.648 603.047C292.98 602.68 292.196 602.634 291.534 602.848C290.171 603.292 289.517 604.729 289.775 605.903C289.991 607.086 291.148 608.163 292.58 608.039C293.272 607.979 293.98 607.633 294.451 607.035C294.923 606.438 295.108 605.621 294.962 604.856ZM294.962 604.856C295.298 606.363 294.405 608.159 292.705 608.66C291.882 608.91 290.916 608.827 290.115 608.368C289.311 607.911 288.719 607.079 288.527 606.154C288.345 605.23 288.566 604.23 289.13 603.497C289.692 602.762 290.553 602.311 291.407 602.221C293.171 602.024 294.687 603.338 294.962 604.856Z" fill="#141414"/>
</g>
<path d="M301.868 638.907L304.684 648.205L225.097 672.347L222.281 663.049L301.868 638.907Z" fill="#FBC600"/>
<g opacity="0.4">
<path d="M301.868 638.907L304.684 648.206L225.097 672.347L222.281 663.049L301.868 638.907Z" fill="white"/>
</g>
<path d="M263.74 647.275L268.113 661.035L258.852 663.984L254.479 650.224L263.74 647.275Z" fill="#FBC600"/>
<path d="M224.446 685.976L203.919 596.993L141.923 611.706L172.438 698.426L224.446 685.976Z" fill="#FBC600"/>
<path d="M238.194 681.455L224.437 685.983L203.91 596.995L223.696 601.704L238.194 681.455Z" fill="#FBC600"/>
<g opacity="0.2">
<path d="M238.196 681.454L224.439 685.982L203.912 596.994L223.698 601.704L238.196 681.454Z" fill="#141414"/>
</g>
<path d="M313.828 643.563C313.828 649.394 309.103 654.121 303.276 654.121C297.449 654.121 292.726 649.394 292.726 643.563C292.726 637.73 297.449 633.004 303.276 633.004C309.103 633.004 313.828 637.73 313.828 643.563Z" fill="#FBC600"/>
<path d="M411.856 638.668L491.393 662.974L488.557 672.268L409.021 647.962L411.856 638.668Z" fill="#FBC600"/>
<g opacity="0.4">
<path d="M411.858 638.668L491.395 662.974L488.559 672.268L409.023 647.962L411.858 638.668Z" fill="white"/>
</g>
<path d="M449.968 647.113L459.223 650.082L454.819 663.835L445.564 660.865L449.968 647.113Z" fill="#FBC600"/>
<path d="M489.185 685.898L509.9 596.957L571.866 611.805L541.165 698.46L489.185 685.898Z" fill="#FBC600"/>
<path d="M475.441 681.349L489.19 685.906L509.905 596.96L490.109 601.628L475.441 681.349Z" fill="#FBC600"/>
<g opacity="0.2">
<path d="M475.441 681.349L489.19 685.906L509.905 596.96L490.109 601.628L475.441 681.349Z" fill="#141414"/>
</g>
<path d="M399.886 643.296C399.876 649.127 404.589 653.864 410.416 653.878C416.244 653.886 420.978 649.171 420.99 643.34C421.002 637.508 416.289 632.771 410.462 632.757C404.633 632.747 399.9 637.462 399.886 643.296Z" fill="#FBC600"/>
<path d="M479.513 533.531C479.763 533.297 505.327 509.57 535.396 517.687C566.147 525.989 591.536 572.338 591.789 572.805L600.336 568.182C599.225 566.125 572.745 517.681 537.926 508.298C502.515 498.741 474.018 525.346 472.822 526.484L479.513 533.531Z" fill="#FBC600"/>
<g opacity="0.4">
<path d="M479.513 533.531C479.763 533.297 505.327 509.57 535.396 517.687C566.147 525.989 591.536 572.338 591.789 572.805L600.336 568.182C599.225 566.125 572.745 517.681 537.926 508.298C502.515 498.741 474.018 525.346 472.822 526.484L479.513 533.531Z" fill="white"/>
</g>
<path d="M580.454 619.466L598.87 609.736C597.101 606.387 594.925 600.631 594.609 595.434C594.2 588.701 596.87 586.331 599.816 584.775C606.269 581.365 610.118 582.717 612.748 584.267C616.438 586.446 620.188 590.906 623.312 596.826L641.726 587.097C636.686 577.545 630.499 570.556 623.332 566.324C616.183 562.107 604.614 558.68 590.095 566.349C578.777 572.33 572.998 583.108 573.826 596.702C574.476 607.397 579.066 616.828 580.454 619.466Z" fill="#FBC600"/>
<path d="M483.395 501.066C487.386 498.305 491.473 495.707 495.571 493.131C499.661 490.54 503.819 488.063 507.977 485.586C512.155 483.145 516.337 480.707 520.583 478.379L526.957 474.898C529.115 473.79 531.24 472.633 533.424 471.571C531.435 472.964 529.393 474.266 527.379 475.616L521.247 479.507C517.157 482.098 512.999 484.575 508.839 487.049C504.659 489.489 500.479 491.927 496.232 494.251C491.992 496.592 487.743 498.908 483.395 501.066Z" fill="#141414"/>
<path d="M472.82 540.823C478.534 544.082 483.952 547.757 489.296 551.539C494.609 555.361 499.849 559.288 504.788 563.638C499.071 560.383 493.653 556.705 488.311 552.921C482.998 549.096 477.76 545.169 472.82 540.823Z" fill="#141414"/>
<path d="M482.205 535.932C486.616 537.273 490.959 538.788 495.292 540.329C499.631 541.851 503.922 543.499 508.214 545.147C512.49 546.833 516.764 548.522 520.993 550.333L527.333 553.055C529.423 554.02 531.535 554.932 533.606 555.945C531.395 555.29 529.222 554.533 527.03 553.831L520.519 551.549C516.181 550.027 511.888 548.379 507.599 546.729C503.322 545.04 499.047 543.353 494.821 541.542C490.587 539.746 486.361 537.927 482.205 535.932Z" fill="#141414"/>
<path d="M494.738 504.795C498.966 503.695 503.226 502.778 507.49 501.891C511.75 500.984 516.034 500.207 520.317 499.433C524.609 498.697 528.9 497.965 533.214 497.362L539.688 496.465C541.856 496.227 544.012 495.929 546.192 495.742C544.08 496.31 541.951 496.769 539.832 497.285L533.441 498.649C529.18 499.555 524.896 500.331 520.611 501.104C516.321 501.838 512.03 502.571 507.715 503.172C503.404 503.792 499.088 504.385 494.738 504.795Z" fill="#141414"/>
<path d="M392.857 531.246C393.574 527.809 394.727 524.459 396.217 521.266C397.71 518.076 399.537 515.014 401.827 512.296C404.127 509.605 406.956 507.229 410.36 505.916C413.762 504.647 417.661 504.657 421.075 506.02C424.53 507.367 427.255 510.274 428.723 513.612C429.484 515.283 429.963 517.07 430.16 518.9C430.331 520.728 430.258 522.627 429.532 524.45C429.161 525.347 428.583 526.255 427.656 526.856C427.206 527.17 426.659 527.347 426.121 527.43C425.589 527.507 425.048 527.483 424.43 527.269C423.294 526.786 422.725 525.871 422.238 525.048C421.802 524.192 421.464 523.315 421.234 522.43C420.28 518.884 420.184 515.276 420.352 511.71C420.858 504.606 422.722 497.503 426.547 491.388C428.477 488.369 430.898 485.588 433.909 483.556C436.88 481.51 440.358 480.102 443.909 479.694C445.657 479.269 447.46 479.312 449.246 479.223C450.139 479.128 451.029 479.344 451.919 479.391C452.805 479.51 453.71 479.493 454.572 479.75C458.099 480.384 461.416 481.801 464.511 483.515C467.589 485.29 470.331 487.57 472.832 490.044C475.314 492.543 477.571 495.277 479.384 498.288C475.369 492.553 470.197 487.575 464.102 484.24C461.034 482.647 457.793 481.337 454.379 480.807C453.547 480.574 452.671 480.613 451.82 480.52C450.963 480.494 450.109 480.299 449.25 480.412C447.535 480.538 445.81 480.53 444.139 480.98C440.715 481.462 437.542 482.84 434.747 484.76C431.941 486.683 429.674 489.322 427.854 492.21C424.25 498.053 422.486 504.954 422.044 511.813C421.852 515.238 421.939 518.743 422.795 521.999C423.204 523.555 423.939 525.308 425.009 525.799C425.148 525.811 425.238 525.886 425.404 525.891C425.572 525.877 425.749 525.913 425.907 525.874C426.228 525.821 426.543 525.733 426.813 525.541C427.37 525.191 427.812 524.568 428.109 523.854C428.703 522.411 428.813 520.699 428.662 519.047C428.496 517.389 428.071 515.741 427.386 514.212C426.043 511.157 423.661 508.515 420.574 507.221C417.504 505.918 413.908 505.811 410.723 506.922C407.521 508.07 404.756 510.281 402.448 512.841C397.829 518.021 394.711 524.503 392.857 531.246Z" fill="#141414"/>
<path d="M235.973 575.277C237.611 572.188 240.02 569.512 242.835 567.399C245.643 565.285 248.871 563.646 252.343 562.844C255.794 562.015 259.504 562.001 262.959 563.051C266.416 564.086 269.53 566.114 272.022 568.699C274.531 571.279 276.406 574.417 277.696 577.752C278.961 581.094 279.72 584.674 279.452 588.337C279.268 590.136 278.905 592.082 277.48 593.64C276.774 594.406 275.684 594.912 274.621 594.928C273.599 594.919 272.632 594.768 271.694 594.267C270.764 593.788 270.015 592.95 269.589 592.024C269.156 591.1 268.995 590.118 268.951 589.171C268.885 587.268 269.294 585.461 269.854 583.741C270.991 580.298 272.864 577.195 275.051 574.383C277.25 571.573 279.837 569.074 282.735 566.991C288.489 562.81 295.815 560.489 302.964 561.425C306.492 561.903 309.993 562.922 313.082 564.721C316.197 566.464 318.897 568.88 321.1 571.643C323.301 574.417 325.015 577.535 326.336 580.783C327.657 584.034 328.632 587.426 329.111 590.889C327.684 584.083 324.886 577.469 320.43 572.193C318.223 569.557 315.562 567.293 312.543 565.698C309.548 564.045 306.192 563.156 302.812 562.779C296.02 562.038 289.131 564.206 283.652 568.262C278.18 572.29 273.703 577.912 271.44 584.271C270.907 585.858 270.533 587.515 270.584 589.112C270.621 590.695 271.177 592.221 272.448 592.863C273.048 593.208 273.861 593.342 274.57 593.354C275.26 593.336 275.871 593.062 276.36 592.552C277.351 591.518 277.776 589.825 277.927 588.201C278.194 584.881 277.508 581.449 276.321 578.277C275.117 575.097 273.333 572.129 271.024 569.648C268.722 567.171 265.818 565.236 262.604 564.186C259.397 563.117 255.881 563.027 252.541 563.737C245.856 565.158 239.66 569.341 235.973 575.277Z" fill="#141414"/>
<path d="M157.425 164.98C157.233 157.989 155.751 150.95 152.499 144.815C150.87 141.778 148.712 138.972 145.876 137.089C143.046 135.251 139.53 134.497 136.238 135.03C132.932 135.548 129.99 137.546 127.956 140.192C126.925 141.512 126.119 143.01 125.562 144.584C125.024 146.15 124.72 147.839 124.954 149.383C125.071 150.148 125.352 150.856 125.81 151.329C126.027 151.582 126.311 151.741 126.611 151.869C126.756 151.945 126.936 151.954 127.095 152.005C127.257 152.04 127.364 151.989 127.501 152.01C128.657 151.789 129.79 150.262 130.557 148.848C132.165 145.893 133.085 142.509 133.715 139.137C134.922 132.373 134.854 125.249 132.747 118.715C131.671 115.475 130.099 112.371 127.83 109.832C125.576 107.301 122.822 105.204 119.613 103.92C118.095 103.082 116.419 102.68 114.785 102.148C113.978 101.832 113.104 101.817 112.263 101.636C111.413 101.524 110.574 101.278 109.71 101.303C106.268 101.004 102.807 101.502 99.4483 102.318C92.7335 104.1 86.5263 107.698 81.2598 112.308C83.7369 109.819 86.579 107.702 89.5858 105.869C92.6062 104.064 95.8116 102.505 99.2242 101.516C102.638 100.59 106.199 100.005 109.776 100.233C110.672 100.189 111.549 100.42 112.435 100.519C113.313 100.685 114.226 100.687 115.073 100.993C116.785 101.504 118.547 101.896 120.143 102.724C123.494 103.969 126.537 106.168 128.934 108.862C131.372 111.555 133.06 114.834 134.214 118.227C136.471 125.077 136.588 132.422 135.384 139.442C134.696 142.944 133.742 146.425 131.97 149.64C131.535 150.445 131 151.216 130.372 151.944C129.701 152.627 128.931 153.379 127.713 153.578C127.061 153.637 126.528 153.53 126.032 153.33C125.528 153.121 125.039 152.817 124.679 152.406C123.924 151.6 123.576 150.581 123.431 149.621C123.16 147.677 123.542 145.815 124.144 144.082C124.771 142.353 125.662 140.73 126.8 139.291C129.022 136.398 132.362 134.228 136.038 133.744C139.679 133.234 143.465 134.155 146.469 136.202C149.462 138.29 151.642 141.27 153.233 144.434C154.808 147.623 155.853 151.031 156.542 154.485C157.228 157.941 157.549 161.471 157.425 164.98Z" fill="#141414"/>
<path d="M532.327 253.604C525.489 252.158 518.302 251.959 511.582 253.692C508.251 254.567 505.02 256.013 502.531 258.334C500.085 260.658 498.531 263.903 498.28 267.232C498.013 270.568 499.266 273.898 501.365 276.495C502.407 277.806 503.674 278.939 505.071 279.848C506.47 280.739 508.039 281.427 509.594 281.561C510.363 281.624 511.119 281.517 511.686 281.182C511.981 281.031 512.202 280.79 512.397 280.528C512.504 280.406 512.555 280.231 512.641 280.09C512.713 279.94 512.691 279.825 512.742 279.695C512.796 278.52 511.577 277.06 510.382 275.983C507.886 273.73 504.813 272.045 501.682 270.645C495.392 267.893 488.451 266.296 481.611 266.82C478.212 267.113 474.83 267.918 471.833 269.532C468.847 271.138 466.168 273.328 464.169 276.151C463.003 277.431 462.22 278.968 461.322 280.434C460.826 281.146 460.609 281.994 460.237 282.769C459.93 283.571 459.495 284.329 459.317 285.176C458.224 288.455 457.899 291.938 457.908 295.398C458.074 302.346 460.122 309.227 463.373 315.429C461.531 312.435 460.137 309.175 459.057 305.824C458.01 302.464 457.241 298.981 457.078 295.428C456.974 291.889 457.235 288.289 458.293 284.862C458.46 283.979 458.889 283.182 459.191 282.341C459.556 281.527 459.774 280.637 460.268 279.886C461.162 278.34 461.955 276.715 463.132 275.356C465.123 272.385 467.971 269.938 471.149 268.234C474.334 266.489 477.913 265.613 481.482 265.28C488.663 264.683 495.828 266.284 502.368 269.092C505.613 270.579 508.77 272.32 511.482 274.794C512.163 275.404 512.786 276.105 513.346 276.887C513.854 277.697 514.404 278.623 514.315 279.855C514.22 280.504 513.991 280.997 513.682 281.434C513.36 281.874 512.95 282.28 512.468 282.534C511.507 283.082 510.436 283.182 509.472 283.099C507.519 282.91 505.798 282.103 504.254 281.112C502.72 280.098 501.351 278.853 500.219 277.409C497.925 274.571 496.596 270.817 496.984 267.126C497.339 263.465 499.117 259.994 501.806 257.549C504.533 255.125 507.939 253.699 511.383 252.889C514.85 252.099 518.406 251.878 521.922 252.014C525.441 252.153 528.945 252.665 532.327 253.604Z" fill="#141414"/>
<path d="M427.217 143.681C426.056 139.654 425.9 135.35 426.554 131.191C427.204 127.036 428.613 122.944 430.912 119.363C433.177 115.778 436.336 112.677 440.158 110.702C443.97 108.71 448.313 107.846 452.588 107.976C456.876 108.094 461.089 109.203 464.966 110.975C468.831 112.771 472.46 115.197 475.27 118.534C476.612 120.214 477.904 122.171 477.982 124.633C478.016 125.846 477.523 127.146 476.652 128.024C475.79 128.85 474.849 129.521 473.661 129.866C472.494 130.225 471.194 130.136 470.082 129.712C468.963 129.29 468.021 128.599 467.204 127.834C465.576 126.28 464.421 124.402 463.471 122.472C461.579 118.588 460.584 114.38 460.106 110.154C459.639 105.922 459.759 101.627 460.496 97.4273C461.914 89.0564 466.228 80.9692 473.094 75.7924C476.499 73.249 480.331 71.1898 484.467 70.1399C488.576 69.0168 492.899 68.818 497.087 69.3294C501.286 69.8493 505.36 71.0675 509.213 72.7308C513.063 74.3958 516.742 76.4703 520.062 79.0188C513.165 74.3499 505.238 71.0063 496.994 70.1908C492.888 69.7729 488.702 70.0549 484.764 71.2153C480.8 72.3027 477.162 74.3567 473.932 76.8662C470.741 79.4231 468.024 82.568 466.038 86.1443C464.038 89.7122 462.729 93.6556 462.038 97.6975C460.715 105.763 461.567 114.356 464.973 121.742C465.851 123.558 466.927 125.303 468.328 126.65C469.703 127.994 471.52 128.872 473.219 128.334C474.055 128.114 474.876 127.54 475.516 126.932C476.119 126.315 476.43 125.518 476.421 124.638C476.399 122.854 475.325 121.035 474.085 119.506C471.515 116.414 468.039 114.042 464.35 112.312C460.642 110.591 456.611 109.539 452.538 109.354C448.472 109.167 444.345 109.951 440.696 111.76C437.039 113.552 433.946 116.441 431.679 119.862C427.146 126.718 425.37 135.514 427.217 143.681Z" fill="#141414"/>
<path d="M234.172 584.445C233.12 587.79 229.561 589.647 226.221 588.592C222.884 587.539 221.03 583.98 222.082 580.634C223.135 577.292 226.692 575.437 230.035 576.49C233.371 577.544 235.225 581.103 234.172 584.445ZM230.298 575.649C226.493 574.448 222.44 576.563 221.242 580.369C220.041 584.18 222.155 588.232 225.96 589.432C229.761 590.631 233.811 588.518 235.009 584.712C236.208 580.908 234.099 576.847 230.298 575.649ZM234.172 584.445C233.12 587.79 229.561 589.647 226.221 588.592C222.884 587.539 221.03 583.98 222.082 580.634C223.135 577.292 226.692 575.437 230.035 576.49C233.371 577.544 235.225 581.103 234.172 584.445ZM230.298 575.649C226.493 574.448 222.44 576.563 221.242 580.369C220.041 584.18 222.155 588.232 225.96 589.432C229.761 590.631 233.811 588.518 235.009 584.712C236.208 580.908 234.099 576.847 230.298 575.649ZM234.172 584.445C233.12 587.79 229.561 589.647 226.221 588.592C222.884 587.539 221.03 583.98 222.082 580.634C223.135 577.292 226.692 575.437 230.035 576.49C233.371 577.544 235.225 581.103 234.172 584.445ZM235.009 584.712C236.208 580.908 234.099 576.847 230.298 575.649C226.493 574.448 222.44 576.563 221.242 580.369C220.041 584.18 222.155 588.232 225.96 589.432C229.761 590.631 233.811 588.518 235.009 584.712ZM236.082 585.047C234.699 589.438 230.008 591.887 225.62 590.504C221.235 589.121 218.789 584.425 220.172 580.033C221.556 575.639 226.25 573.198 230.636 574.581C235.019 575.964 237.464 580.658 236.082 585.047ZM232.704 568.018C224.683 565.489 216.14 569.949 213.614 577.965C211.089 585.983 215.536 594.537 223.554 597.064C231.564 599.588 240.113 595.135 242.638 587.114C245.164 579.1 240.716 570.541 232.704 568.018ZM234.172 584.445C233.12 587.79 229.561 589.647 226.221 588.592C222.884 587.539 221.03 583.98 222.082 580.634C223.135 577.292 226.692 575.437 230.035 576.49C233.371 577.544 235.225 581.103 234.172 584.445ZM230.298 575.649C226.493 574.448 222.44 576.563 221.242 580.369C220.041 584.18 222.155 588.232 225.96 589.432C229.761 590.631 233.811 588.518 235.009 584.712C236.208 580.908 234.099 576.847 230.298 575.649ZM234.172 584.445C233.12 587.79 229.561 589.647 226.221 588.592C222.884 587.539 221.03 583.98 222.082 580.634C223.135 577.292 226.692 575.437 230.035 576.49C233.371 577.544 235.225 581.103 234.172 584.445ZM230.298 575.649C226.493 574.448 222.44 576.563 221.242 580.369C220.041 584.18 222.155 588.232 225.96 589.432C229.761 590.631 233.811 588.518 235.009 584.712C236.208 580.908 234.099 576.847 230.298 575.649ZM234.172 584.445C233.12 587.79 229.561 589.647 226.221 588.592C222.884 587.539 221.03 583.98 222.082 580.634C223.135 577.292 226.692 575.437 230.035 576.49C233.371 577.544 235.225 581.103 234.172 584.445ZM230.298 575.649C226.493 574.448 222.44 576.563 221.242 580.369C220.041 584.18 222.155 588.232 225.96 589.432C229.761 590.631 233.811 588.518 235.009 584.712C236.208 580.908 234.099 576.847 230.298 575.649Z" fill="black" fill-opacity="0.21"/>
<path d="M226.531 597.341L220.949 595.579L220.014 599.628L224.977 601.196L226.531 597.341Z" fill="black" fill-opacity="0.21"/>
<path d="M216.504 592.109L213.801 586.917L210.279 589.117L212.682 593.737L216.504 592.109Z" fill="black" fill-opacity="0.21"/>
<path d="M213.109 581.313L214.868 575.728L210.82 574.791L209.255 579.757L213.109 581.313Z" fill="black" fill-opacity="0.21"/>
<path d="M218.334 571.277L223.524 568.572L221.324 565.047L216.708 567.453L218.334 571.277Z" fill="black" fill-opacity="0.21"/>
<path d="M229.123 567.878L234.704 569.638L235.639 565.589L230.677 564.024L229.123 567.878Z" fill="black" fill-opacity="0.21"/>
<path d="M239.152 573.111L241.854 578.303L245.378 576.101L242.976 571.482L239.152 573.111Z" fill="black" fill-opacity="0.21"/>
<path d="M242.547 583.906L240.788 589.491L244.836 590.428L246.401 585.462L242.547 583.906Z" fill="black" fill-opacity="0.21"/>
<path d="M237.318 593.942L232.131 596.647L234.328 600.173L238.946 597.768L237.318 593.942Z" fill="black" fill-opacity="0.21"/>
<path d="M501.836 519.712C498.259 524.535 491.459 525.543 486.642 521.965C481.822 518.387 480.816 511.581 484.395 506.757C487.967 501.937 494.768 500.93 499.588 504.511C504.405 508.087 505.41 514.892 501.836 519.712ZM511.79 527.106C519.444 516.785 517.288 502.207 506.975 494.548C496.659 486.887 482.091 489.045 474.439 499.363C466.783 509.688 468.939 524.267 479.254 531.926C489.566 539.585 504.135 537.429 511.79 527.106Z" fill="#141414"/>
<path d="M483.42 533.818L476.238 528.482L472.863 533.863L479.251 538.608L483.42 533.818Z" fill="#141414"/>
<path d="M471.549 521.244L470.24 512.391L464.049 513.808L465.213 521.683L471.549 521.244Z" fill="#141414"/>
<path d="M472.037 503.948L477.365 496.765L471.987 493.385L467.247 499.775L472.037 503.948Z" fill="#141414"/>
<path d="M484.598 492.068L493.446 490.758L492.031 484.563L484.16 485.729L484.598 492.068Z" fill="#141414"/>
<path d="M501.881 492.557L509.06 497.89L512.437 492.511L506.051 487.765L501.881 492.557Z" fill="#141414"/>
<path d="M513.752 505.131L515.06 513.984L521.252 512.567L520.088 504.692L513.752 505.131Z" fill="#141414"/>
<path d="M513.264 522.423L507.933 529.609L513.312 532.989L518.052 526.596L513.264 522.423Z" fill="#141414"/>
<path d="M500.701 534.303L491.855 535.613L493.27 541.809L501.14 540.641L500.701 534.303Z" fill="#141414"/>
<path d="M494.15 511.161C495.271 511.994 495.503 513.57 494.673 514.69C493.843 515.808 492.267 516.046 491.145 515.213C490.029 514.384 489.797 512.801 490.624 511.684C491.456 510.561 493.035 510.334 494.15 511.161ZM484.783 514.352L489.725 520.587L497.591 519.418L500.512 512.022L495.576 505.791L487.707 506.951L484.783 514.352Z" fill="#141414"/>
<path d="M532.618 81.5983C531.696 84.5257 528.582 86.1482 525.66 85.2274C522.74 84.3065 521.117 81.1906 522.039 78.2632C522.961 75.3393 526.073 73.7167 528.996 74.6376C531.916 75.5584 533.538 78.6744 532.618 81.5983ZM529.227 73.9019C525.898 72.8519 522.351 74.7004 521.304 78.0305C520.253 81.3656 522.103 84.9114 525.433 85.9613C528.759 87.0113 532.3 85.1628 533.351 81.8311C534.399 78.5028 532.553 74.9502 529.227 73.9019ZM532.618 81.5983C531.696 84.5257 528.582 86.1482 525.66 85.2274C522.74 84.3065 521.117 81.1906 522.039 78.2632C522.961 75.3393 526.073 73.7167 528.996 74.6376C531.916 75.5584 533.538 78.6744 532.618 81.5983ZM529.227 73.9019C525.898 72.8519 522.351 74.7004 521.304 78.0305C520.253 81.3656 522.103 84.9114 525.433 85.9613C528.759 87.0113 532.3 85.1628 533.351 81.8311C534.399 78.5028 532.553 74.9502 529.227 73.9019ZM532.618 81.5983C531.696 84.5257 528.582 86.1482 525.66 85.2274C522.74 84.3065 521.117 81.1906 522.039 78.2632C522.961 75.3393 526.073 73.7167 528.996 74.6376C531.916 75.5584 533.538 78.6744 532.618 81.5983ZM533.351 81.8311C534.399 78.5028 532.553 74.9502 529.227 73.9019C525.898 72.8519 522.351 74.7004 521.304 78.0305C520.253 81.3656 522.103 84.9114 525.433 85.9613C528.759 87.0113 532.3 85.1628 533.351 81.8311ZM534.288 82.125C533.078 85.9681 528.974 88.1106 525.135 86.8992C521.297 85.6895 519.156 81.5813 520.366 77.7365C521.577 73.8934 525.686 71.7561 529.524 72.9658C533.36 74.1755 535.497 78.2836 534.288 82.125ZM531.332 67.2232C524.312 65.0111 516.838 68.912 514.628 75.9271C512.421 82.9439 516.312 90.428 523.326 92.6401C530.336 94.8488 537.816 90.9513 540.023 83.9344C542.236 76.921 538.343 69.4319 531.332 67.2232ZM532.618 81.5983C531.696 84.5257 528.582 86.1482 525.66 85.2274C522.74 84.3065 521.117 81.1906 522.039 78.2632C522.961 75.3393 526.073 73.7167 528.996 74.6376C531.916 75.5584 533.538 78.6744 532.618 81.5983ZM529.227 73.9019C525.898 72.8519 522.351 74.7004 521.304 78.0305C520.253 81.3656 522.103 84.9114 525.433 85.9613C528.759 87.0113 532.3 85.1628 533.351 81.8311C534.399 78.5028 532.553 74.9502 529.227 73.9019ZM532.618 81.5983C531.696 84.5257 528.582 86.1482 525.66 85.2274C522.74 84.3065 521.117 81.1906 522.039 78.2632C522.961 75.3393 526.073 73.7167 528.996 74.6376C531.916 75.5584 533.538 78.6744 532.618 81.5983ZM529.227 73.9019C525.898 72.8519 522.351 74.7004 521.304 78.0305C520.253 81.3656 522.103 84.9114 525.433 85.9613C528.759 87.0113 532.3 85.1628 533.351 81.8311C534.399 78.5028 532.553 74.9502 529.227 73.9019ZM532.618 81.5983C531.696 84.5257 528.582 86.1482 525.66 85.2274C522.74 84.3065 521.117 81.1906 522.039 78.2632C522.961 75.3393 526.073 73.7167 528.996 74.6376C531.916 75.5584 533.538 78.6744 532.618 81.5983ZM529.227 73.9019C525.898 72.8519 522.351 74.7004 521.304 78.0305C520.253 81.3656 522.103 84.9114 525.433 85.9613C528.759 87.0113 532.3 85.1628 533.351 81.8311C534.399 78.5028 532.553 74.9502 529.227 73.9019Z" fill="#141414"/>
<path d="M525.934 92.8813L521.051 91.3416L520.233 94.886L524.576 96.2557L525.934 92.8813Z" fill="#141414"/>
<path d="M517.158 88.3042L514.794 83.7598L511.711 85.6866L513.814 89.7292L517.158 88.3042Z" fill="#141414"/>
<path d="M514.188 78.8586L515.725 73.9718L512.183 73.1541L510.816 77.4982L514.188 78.8586Z" fill="#141414"/>
<path d="M518.76 70.0757L523.302 67.7084L521.377 64.6243L517.337 66.7302L518.76 70.0757Z" fill="#141414"/>
<path d="M528.197 67.1033L533.08 68.643L533.898 65.0986L529.556 63.7294L528.197 67.1033Z" fill="#141414"/>
<path d="M536.977 71.6804L539.341 76.2248L542.424 74.2981L540.323 70.2562L536.977 71.6804Z" fill="#141414"/>
<path d="M539.945 81.1262L538.408 86.0115L541.951 86.8313L543.319 82.4856L539.945 81.1262Z" fill="#141414"/>
<path d="M535.375 89.9089L530.833 92.2762L532.757 95.3603L536.798 93.2544L535.375 89.9089Z" fill="#141414"/>
<path d="M467.736 324.325C466.814 327.252 463.7 328.875 460.778 327.954C457.858 327.031 456.235 323.917 457.157 320.99C458.079 318.066 461.191 316.442 464.114 317.364C467.034 318.285 468.656 321.401 467.736 324.325ZM464.345 316.628C461.016 315.579 457.469 317.427 456.42 320.755C455.371 324.09 457.221 327.638 460.551 328.688C463.877 329.738 467.418 327.889 468.469 324.558C469.517 321.229 467.671 317.677 464.345 316.628ZM467.736 324.325C466.814 327.252 463.7 328.875 460.778 327.954C457.858 327.031 456.235 323.917 457.157 320.99C458.079 318.066 461.191 316.442 464.114 317.364C467.034 318.285 468.656 321.401 467.736 324.325ZM464.345 316.628C461.016 315.579 457.469 317.427 456.42 320.755C455.371 324.09 457.221 327.638 460.551 328.688C463.877 329.738 467.418 327.889 468.469 324.558C469.517 321.229 467.671 317.677 464.345 316.628ZM467.736 324.325C466.814 327.252 463.7 328.875 460.778 327.954C457.858 327.031 456.235 323.917 457.157 320.99C458.079 318.066 461.191 316.442 464.114 317.364C467.034 318.285 468.656 321.401 467.736 324.325ZM468.469 324.558C469.517 321.229 467.671 317.677 464.345 316.628C461.016 315.579 457.469 317.427 456.42 320.755C455.371 324.09 457.221 327.638 460.551 328.688C463.877 329.738 467.418 327.889 468.469 324.558ZM469.406 324.852C468.196 328.695 464.09 330.837 460.253 329.626C456.415 328.416 454.274 324.308 455.484 320.463C456.695 316.62 460.804 314.483 464.642 315.692C468.478 316.902 470.615 321.01 469.406 324.852ZM466.45 309.95C459.43 307.738 451.956 311.639 449.746 318.654C447.537 325.671 451.428 333.155 458.444 335.367C465.454 337.575 472.934 333.678 475.141 326.661C477.354 319.648 473.459 312.158 466.45 309.95ZM467.736 324.325C466.814 327.252 463.7 328.875 460.778 327.954C457.858 327.031 456.235 323.917 457.157 320.99C458.079 318.066 461.191 316.442 464.114 317.364C467.034 318.285 468.656 321.401 467.736 324.325ZM464.345 316.628C461.016 315.579 457.469 317.427 456.42 320.755C455.371 324.09 457.221 327.638 460.551 328.688C463.877 329.738 467.418 327.889 468.469 324.558C469.517 321.229 467.671 317.677 464.345 316.628ZM467.736 324.325C466.814 327.252 463.7 328.875 460.778 327.954C457.858 327.031 456.235 323.917 457.157 320.99C458.079 318.066 461.191 316.442 464.114 317.364C467.034 318.285 468.656 321.401 467.736 324.325ZM464.345 316.628C461.016 315.579 457.469 317.427 456.42 320.755C455.371 324.09 457.221 327.638 460.551 328.688C463.877 329.738 467.418 327.889 468.469 324.558C469.517 321.229 467.671 317.677 464.345 316.628ZM467.736 324.325C466.814 327.252 463.7 328.875 460.778 327.954C457.858 327.031 456.235 323.917 457.157 320.99C458.079 318.066 461.191 316.442 464.114 317.364C467.034 318.285 468.656 321.401 467.736 324.325ZM464.345 316.628C461.016 315.579 457.469 317.427 456.42 320.755C455.371 324.09 457.221 327.638 460.551 328.688C463.877 329.738 467.418 327.889 468.469 324.558C469.517 321.229 467.671 317.677 464.345 316.628Z" fill="#141414"/>
<path d="M461.049 335.608L456.166 334.068L455.348 337.613L459.692 338.981L461.049 335.608Z" fill="#141414"/>
<path d="M452.273 331.031L449.909 326.487L446.826 328.414L448.929 332.456L452.273 331.031Z" fill="#141414"/>
<path d="M449.303 321.584L450.841 316.698L447.299 315.88L445.932 320.222L449.303 321.584Z" fill="#141414"/>
<path d="M453.879 312.802L458.419 310.435L456.494 307.351L452.457 309.456L453.879 312.802Z" fill="#141414"/>
<path d="M463.314 309.83L468.197 311.37L469.015 307.825L464.674 306.456L463.314 309.83Z" fill="#141414"/>
<path d="M472.094 314.406L474.458 318.95L477.541 317.024L475.44 312.982L472.094 314.406Z" fill="#141414"/>
<path d="M475.062 323.854L473.525 328.739L477.068 329.559L478.436 325.213L475.062 323.854Z" fill="#141414"/>
<path d="M470.492 332.636L465.95 335.003L467.874 338.087L471.915 335.981L470.492 332.636Z" fill="#141414"/>
<path d="M82.6544 123.01C81.4302 128.035 76.3742 131.114 71.3555 129.889C66.3334 128.666 63.2587 123.604 64.4811 118.579C65.7035 113.558 70.7613 110.48 75.7834 111.705C80.8004 112.928 83.8768 117.988 82.6544 123.01ZM93.0245 125.538C95.6425 114.788 89.0534 103.945 78.3097 101.326C67.5626 98.7058 56.7273 105.3 54.1109 116.051C51.4929 126.805 58.0804 137.648 68.8292 140.268C79.5728 142.888 90.4065 136.293 93.0245 125.538Z" fill="#141414"/>
<path d="M72.7656 140.37L65.2827 138.544L64.4067 143.945L71.0631 145.569L72.7656 140.37Z" fill="#141414"/>
<path d="M59.1406 134.375L55.1392 127.791L50.7014 130.99L54.2585 136.846L59.1406 134.375Z" fill="#141414"/>
<path d="M53.7383 120.494L55.5609 113.007L50.1622 112.13L48.5417 118.787L53.7383 120.494Z" fill="#141414"/>
<path d="M59.7266 106.857L66.3054 102.852L63.1112 98.4139L57.2582 101.975L59.7266 106.857Z" fill="#141414"/>
<path d="M73.5996 101.455L81.0825 103.28L81.9586 97.8799L75.3038 96.2564L73.5996 101.455Z" fill="#141414"/>
<path d="M87.2246 107.45L91.226 114.034L95.6639 110.836L92.1067 104.98L87.2246 107.45Z" fill="#141414"/>
<path d="M92.625 121.331L90.8024 128.818L96.2011 129.694L97.8216 123.038L92.625 121.331Z" fill="#141414"/>
<path d="M86.6348 134.967L80.0559 138.972L83.2501 143.41L89.1031 139.849L86.6348 134.967Z" fill="#141414"/>
<path d="M73.6934 118.803C74.8598 119.087 75.5728 120.259 75.2876 121.428C75.0041 122.59 73.8326 123.309 72.6662 123.023C71.5015 122.739 70.7867 121.564 71.0703 120.398C71.3555 119.231 72.5304 118.519 73.6934 118.803ZM67.33 124.472L73.3368 127.763L79.1858 124.199L79.0279 117.354L73.0261 114.064L67.1738 117.622L67.33 124.472Z" fill="#141414"/>
<path d="M545.606 332.723C541.038 325.762 538.471 317.936 538.471 309.662C538.471 280.446 570.531 256.757 610.054 256.757C649.577 256.757 681.606 280.446 681.606 309.662C681.606 338.876 649.577 362.564 610.054 362.564C590.889 362.564 573.516 357.008 560.68 347.927L536.021 354.201L545.606 332.723Z" fill="#F8F8F8"/>
<path d="M545.605 332.722L536.193 354.278L535.977 354.021L560.583 347.553L560.753 347.507L560.904 347.611C573.598 356.383 588.913 360.946 604.239 361.767C611.919 362.242 619.643 361.612 627.189 360.248C634.726 358.846 642.152 356.605 649.018 353.177C655.887 349.789 662.288 345.388 667.602 339.902C672.908 334.435 677.103 327.821 679.222 320.514C681.407 313.228 681.198 305.318 678.942 298.094C676.701 290.834 672.41 284.291 667.033 278.898C661.648 273.487 655.201 269.165 648.3 265.855C646.541 265.098 644.833 264.212 643.032 263.558L637.614 261.625L632.06 260.113C630.208 259.613 628.298 259.353 626.422 258.961C618.858 257.678 611.142 257.211 603.468 257.704C595.804 258.247 588.198 259.642 580.885 262.014C573.575 264.372 566.563 267.753 560.327 272.254C554.089 276.727 548.597 282.317 544.634 288.912C540.602 295.477 538.588 303.197 538.676 310.907C538.836 318.633 541.396 326.231 545.605 332.722ZM545.605 332.722C541.296 326.299 538.595 318.713 538.311 310.919C538.099 303.143 540.013 295.273 544.004 288.545C547.904 281.765 553.466 276.051 559.748 271.452C566.036 266.829 573.118 263.339 580.508 260.882C587.901 258.412 595.604 256.929 603.373 256.307C611.154 255.738 618.989 256.222 626.678 257.493C628.587 257.885 630.527 258.147 632.414 258.648L638.067 260.171L643.59 262.123C645.427 262.785 647.173 263.681 648.967 264.449C656.018 267.804 662.628 272.201 668.185 277.752C673.73 283.28 678.202 290.035 680.558 297.594C682.913 305.124 683.084 313.393 680.794 320.967C678.565 328.567 674.196 335.392 668.728 340.993C663.246 346.617 656.689 351.092 649.675 354.524C642.663 357.997 635.108 360.258 627.446 361.651C619.772 362.97 611.938 363.535 604.166 362.985C596.395 362.494 588.673 361.074 581.279 358.63C573.89 356.196 566.783 352.796 560.456 348.243L560.775 348.302L536.069 354.381L535.693 354.473L535.853 354.125L545.605 332.722Z" fill="#141414"/>
<path d="M573.23 318.322V322.255H557.211V299.171H572.938V303.104H561.697V308.665H571.411V312.306H561.697V318.322H573.23Z" fill="#141414"/>
<path d="M581.224 310.583H586.845C587.256 310.583 587.64 310.486 587.996 310.291C588.355 310.095 588.664 309.83 588.923 309.494C589.183 309.159 589.39 308.763 589.54 308.308C589.692 307.853 589.769 307.363 589.769 306.844C589.769 306.302 589.681 305.804 589.509 305.348C589.334 304.893 589.103 304.497 588.81 304.163C588.518 303.826 588.181 303.566 587.803 303.381C587.423 303.198 587.039 303.106 586.648 303.106H581.224V310.583ZM576.738 322.257V299.171H586.942C588.003 299.171 588.983 299.393 589.883 299.837C590.781 300.282 591.555 300.866 592.205 301.592C592.855 302.319 593.363 303.143 593.732 304.064C594.1 304.987 594.283 305.912 594.283 306.844C594.283 308.34 593.912 309.7 593.163 310.925C592.417 312.149 591.404 313.033 590.125 313.575L595.39 322.257H590.353L585.643 314.518H581.224V322.257H576.738Z" fill="#141414"/>
<path d="M602.831 310.583H608.453C608.864 310.583 609.247 310.486 609.604 310.291C609.962 310.095 610.271 309.83 610.531 309.494C610.791 309.159 610.998 308.763 611.147 308.308C611.3 307.853 611.376 307.363 611.376 306.844C611.376 306.302 611.288 305.804 611.117 305.348C610.942 304.893 610.711 304.497 610.417 304.163C610.125 303.826 609.789 303.566 609.41 303.381C609.03 303.198 608.646 303.106 608.256 303.106H602.831V310.583ZM598.346 322.257V299.171H608.549C609.611 299.171 610.59 299.393 611.49 299.837C612.388 300.282 613.162 300.866 613.813 301.592C614.463 302.319 614.971 303.143 615.339 304.064C615.707 304.987 615.891 305.912 615.891 306.844C615.891 308.34 615.519 309.7 614.77 310.925C614.025 312.149 613.011 313.033 611.733 313.575L616.998 322.257H611.96L607.251 314.518H602.831V322.257H598.346Z" fill="#141414"/>
<path d="M623.103 310.714C623.103 311.711 623.254 312.676 623.558 313.607C623.86 314.54 624.3 315.364 624.874 316.079C625.448 316.795 626.152 317.369 626.986 317.802C627.82 318.235 628.767 318.453 629.83 318.453C630.913 318.453 631.871 318.23 632.704 317.787C633.538 317.342 634.242 316.75 634.816 316.015C635.39 315.277 635.823 314.448 636.117 313.526C636.409 312.605 636.555 311.669 636.555 310.714C636.555 309.718 636.397 308.753 636.084 307.82C635.769 306.889 635.326 306.064 634.752 305.348C634.176 304.633 633.473 304.064 632.64 303.643C631.806 303.22 630.869 303.007 629.83 303.007C628.745 303.007 627.782 303.232 626.938 303.675C626.093 304.12 625.388 304.705 624.826 305.43C624.263 306.157 623.835 306.981 623.543 307.902C623.249 308.823 623.103 309.761 623.103 310.714ZM629.796 322.42C628.107 322.42 626.575 322.089 625.198 321.428C623.823 320.767 622.643 319.888 621.657 318.794C620.67 317.7 619.908 316.448 619.366 315.038C618.825 313.629 618.555 312.189 618.555 310.714C618.555 309.175 618.842 307.702 619.415 306.291C619.989 304.883 620.781 303.636 621.787 302.554C622.794 301.47 623.991 300.608 625.378 299.968C626.764 299.329 628.269 299.008 629.894 299.008C631.562 299.008 633.083 299.351 634.458 300.032C635.835 300.715 637.01 301.611 637.984 302.715C638.959 303.821 639.718 305.078 640.258 306.487C640.801 307.897 641.071 309.327 641.071 310.78C641.071 312.318 640.789 313.787 640.227 315.184C639.663 316.584 638.882 317.819 637.888 318.891C636.891 319.965 635.699 320.821 634.314 321.46C632.927 322.1 631.421 322.42 629.796 322.42Z" fill="#141414"/>
<path d="M648.999 310.583H654.621C655.032 310.583 655.415 310.486 655.772 310.291C656.13 310.095 656.439 309.83 656.699 309.494C656.959 309.159 657.166 308.763 657.315 308.308C657.468 307.853 657.544 307.363 657.544 306.844C657.544 306.302 657.456 305.804 657.285 305.348C657.11 304.893 656.879 304.497 656.585 304.163C656.293 303.826 655.957 303.566 655.578 303.381C655.198 303.198 654.814 303.106 654.424 303.106H648.999V310.583ZM644.514 322.257V299.171H654.717C655.779 299.171 656.758 299.393 657.658 299.837C658.556 300.282 659.33 300.866 659.981 301.592C660.631 302.319 661.139 303.143 661.507 304.064C661.875 304.987 662.059 305.912 662.059 306.844C662.059 308.34 661.687 309.7 660.938 310.925C660.193 312.149 659.179 313.033 657.901 313.575L663.166 322.257H658.128L653.419 314.518H648.999V322.257H644.514Z" fill="#141414"/>
</g>
<defs>
<clipPath id="clip0_266_17287">
<rect width="694" height="725" fill="white"/>
</clipPath>
</defs>
</svg>
