<svg width="213" height="49" viewBox="0 0 213 49" fill="none" xmlns="http://www.w3.org/2000/svg">
<path d="M29.9213 34.3974H22.6964L22.6886 30.4718H29.9213C31.0037 30.4718 31.8837 31.3525 31.8837 32.435C31.8837 33.5166 31.0037 34.3974 29.9213 34.3974ZM29.9213 23.2531C31.0037 23.2531 31.8837 24.1338 31.8837 25.2155C31.8837 26.2979 31.0037 27.1786 29.9213 27.1786H22.6816L22.6739 23.2531H29.9213ZM35.1768 25.2155C35.1768 22.3181 32.8195 19.9599 29.9213 19.9599H27.8603L27.8324 17.6321L24.5393 17.6709L24.5672 19.9599H22.6669L22.6622 17.6484L19.3683 17.6546L19.3737 19.9599H16.9287V23.2531H19.3807L19.404 34.3974H16.9287V37.6905H19.411L19.4156 40.1161L22.7088 40.1092L22.7041 37.6905H24.5587L24.5866 40.1317L27.8797 40.0936L27.8518 37.6905H29.9213C32.8195 37.6905 35.1768 35.3332 35.1768 32.435C35.1768 31.0382 34.6298 29.7672 33.7382 28.8252C34.6298 27.8832 35.1768 26.6122 35.1768 25.2155Z" fill="#141414"/>
<path d="M15.7132 47.1338C14.8123 48.9022 12.5434 49.4858 10.9271 48.3342C4.42927 43.7072 0.52002 36.2472 0.52002 28.1067C0.52002 19.9599 4.42927 12.4991 10.9271 7.87598C12.5442 6.72524 14.8139 7.30954 15.7132 9.07871C16.4403 10.508 16.0337 12.2671 14.727 13.1975C9.93932 16.6055 7.05743 22.1039 7.05743 28.1067C7.05743 34.1048 9.93932 39.6032 14.7293 43.0143C16.0352 43.9454 16.441 45.7053 15.7132 47.1338Z" fill="#FBC600"/>
<path d="M35.0321 47.1346C34.3043 45.7053 34.7093 43.9455 36.016 43.0143C40.8052 39.6032 43.6871 34.1048 43.6871 28.1067C43.6871 22.1039 40.8052 16.6055 36.0176 13.1975C34.7117 12.2671 34.3051 10.508 35.0321 9.07949C35.9315 7.31031 38.2003 6.72524 39.8182 7.87598C46.3153 12.4991 50.2245 19.9607 50.2245 28.1067C50.2245 36.2472 46.316 43.7072 39.8182 48.335C38.2019 49.4858 35.933 48.903 35.0321 47.1346Z" fill="#FBC600"/>
<path d="M27.926 5.81044L25.4375 0.929688L22.9056 5.89735L20.1432 3.13495V11.1017H30.6015V3.13495L27.926 5.81044Z" fill="#FBC600"/>
<path d="M69.8045 23.2297C68.3912 23.2297 67.1578 22.9164 66.1045 22.2897C65.0512 21.663 64.2378 20.7897 63.6645 19.6697C63.1045 18.5364 62.8245 17.223 62.8245 15.7297C62.8245 14.2364 63.1045 12.9297 63.6645 11.8097C64.2378 10.6764 65.0512 9.79635 66.1045 9.16969C67.1578 8.54302 68.3912 8.22969 69.8045 8.22969C71.4312 8.22969 72.8112 8.63635 73.9445 9.44969C75.0778 10.2497 75.8778 11.363 76.3445 12.7897L73.6045 13.5497C73.3245 12.6564 72.8645 11.9764 72.2245 11.5097C71.5978 11.0297 70.7912 10.7897 69.8045 10.7897C68.4578 10.7897 67.4312 11.2297 66.7245 12.1097C66.0312 12.9897 65.6845 14.1964 65.6845 15.7297C65.6845 17.263 66.0312 18.4697 66.7245 19.3497C67.4312 20.2297 68.4578 20.6697 69.8045 20.6697C70.7912 20.6697 71.5978 20.4364 72.2245 19.9697C72.8645 19.4897 73.3245 18.803 73.6045 17.9097L76.3445 18.6697C75.8778 20.0964 75.0778 21.2164 73.9445 22.0297C72.8112 22.8297 71.4312 23.2297 69.8045 23.2297ZM86.6664 22.9297L84.3064 18.0497H81.2664V22.9297H78.5464V8.52969H84.6264C85.093 8.52969 85.493 8.55635 85.8264 8.60969C87.0664 8.79635 87.993 9.30969 88.6064 10.1497C89.233 10.9764 89.5464 12.023 89.5464 13.2897C89.5464 14.303 89.3464 15.183 88.9464 15.9297C88.5464 16.663 87.9464 17.2164 87.1464 17.5897L89.7464 22.9297H86.6664ZM81.2664 15.5097H84.5064C84.893 15.5097 85.1997 15.4764 85.4264 15.4097C85.9197 15.2764 86.273 15.0097 86.4864 14.6097C86.6997 14.2097 86.8064 13.7697 86.8064 13.2897C86.8064 12.8097 86.6997 12.3697 86.4864 11.9697C86.273 11.5697 85.9197 11.303 85.4264 11.1697C85.1864 11.103 84.8797 11.0697 84.5064 11.0697H81.2664V15.5097ZM95.1718 17.0697L90.2518 8.52969H93.4318L96.5518 13.9497L99.6718 8.52969H102.852L97.9318 17.0697V22.9297H95.1718V17.0697ZM110.329 8.52969C110.796 8.52969 111.196 8.55635 111.529 8.60969C112.769 8.79635 113.696 9.30969 114.309 10.1497C114.936 10.9764 115.249 12.023 115.249 13.2897C115.249 14.5564 114.936 15.6097 114.309 16.4497C113.696 17.2764 112.769 17.783 111.529 17.9697C111.196 18.023 110.796 18.0497 110.329 18.0497H106.969V22.9297H104.249V8.52969H110.329ZM110.209 15.5097C110.596 15.5097 110.903 15.4764 111.129 15.4097C111.623 15.2764 111.976 15.0097 112.189 14.6097C112.403 14.2097 112.509 13.7697 112.509 13.2897C112.509 12.8097 112.403 12.3697 112.189 11.9697C111.976 11.5697 111.623 11.303 111.129 11.1697C110.889 11.103 110.583 11.0697 110.209 11.0697H106.969V15.5097H110.209ZM120.597 11.0697H116.057V8.52969H127.857V11.0697H123.317V22.9297H120.597V11.0697ZM135.644 23.2297C134.231 23.2297 132.998 22.9164 131.944 22.2897C130.891 21.663 130.078 20.7897 129.504 19.6697C128.944 18.5364 128.664 17.223 128.664 15.7297C128.664 14.2364 128.944 12.9297 129.504 11.8097C130.078 10.6764 130.891 9.79635 131.944 9.16969C132.998 8.54302 134.231 8.22969 135.644 8.22969C137.058 8.22969 138.291 8.54302 139.344 9.16969C140.398 9.79635 141.204 10.6764 141.764 11.8097C142.338 12.9297 142.624 14.2364 142.624 15.7297C142.624 17.223 142.338 18.5364 141.764 19.6697C141.204 20.7897 140.398 21.663 139.344 22.2897C138.291 22.9164 137.058 23.2297 135.644 23.2297ZM135.644 20.6697C136.978 20.683 137.991 20.2497 138.684 19.3697C139.391 18.4897 139.744 17.2764 139.744 15.7297C139.744 14.1964 139.398 12.9964 138.704 12.1297C138.011 11.2497 136.991 10.803 135.644 10.7897C134.311 10.7764 133.291 11.2097 132.584 12.0897C131.891 12.9697 131.544 14.183 131.544 15.7297C131.544 17.263 131.891 18.4697 132.584 19.3497C133.278 20.2164 134.298 20.6564 135.644 20.6697ZM153.341 15.3497C153.994 15.6164 154.494 16.043 154.841 16.6297C155.187 17.203 155.361 17.8497 155.361 18.5697C155.361 19.903 154.987 20.963 154.241 21.7497C153.507 22.5364 152.427 22.9297 151.001 22.9297H144.621V8.52969H150.381C151.354 8.52969 152.161 8.72969 152.801 9.12969C153.454 9.51635 153.934 10.0164 154.241 10.6297C154.547 11.243 154.701 11.8897 154.701 12.5697C154.701 13.2097 154.581 13.7697 154.341 14.2497C154.114 14.7297 153.781 15.0964 153.341 15.3497ZM147.381 14.1497H150.341C150.821 14.1497 151.207 14.023 151.501 13.7697C151.794 13.5164 151.941 13.1364 151.941 12.6297C151.941 12.1764 151.801 11.803 151.521 11.5097C151.241 11.2164 150.847 11.0697 150.341 11.0697H147.381V14.1497ZM150.721 20.3697C151.281 20.3697 151.734 20.1964 152.081 19.8497C152.441 19.503 152.621 19.043 152.621 18.4697C152.621 17.9364 152.454 17.5097 152.121 17.1897C151.801 16.8564 151.334 16.6897 150.721 16.6897H147.381V20.3697H150.721ZM163.535 23.2297C162.122 23.2297 160.888 22.9164 159.835 22.2897C158.782 21.663 157.968 20.7897 157.395 19.6697C156.835 18.5364 156.555 17.223 156.555 15.7297C156.555 14.2364 156.835 12.9297 157.395 11.8097C157.968 10.6764 158.782 9.79635 159.835 9.16969C160.888 8.54302 162.122 8.22969 163.535 8.22969C164.948 8.22969 166.182 8.54302 167.235 9.16969C168.288 9.79635 169.095 10.6764 169.655 11.8097C170.228 12.9297 170.515 14.2364 170.515 15.7297C170.515 17.223 170.228 18.5364 169.655 19.6697C169.095 20.7897 168.288 21.663 167.235 22.2897C166.182 22.9164 164.948 23.2297 163.535 23.2297ZM163.535 20.6697C164.868 20.683 165.882 20.2497 166.575 19.3697C167.282 18.4897 167.635 17.2764 167.635 15.7297C167.635 14.1964 167.288 12.9964 166.595 12.1297C165.902 11.2497 164.882 10.803 163.535 10.7897C162.202 10.7764 161.182 11.2097 160.475 12.0897C159.782 12.9697 159.435 14.183 159.435 15.7297C159.435 17.263 159.782 18.4697 160.475 19.3497C161.168 20.2164 162.188 20.6564 163.535 20.6697ZM178.691 23.2297C177.278 23.2297 176.045 22.9164 174.991 22.2897C173.938 21.663 173.125 20.7897 172.551 19.6697C171.991 18.5364 171.711 17.223 171.711 15.7297C171.711 14.2364 171.991 12.9297 172.551 11.8097C173.125 10.6764 173.938 9.79635 174.991 9.16969C176.045 8.54302 177.278 8.22969 178.691 8.22969C180.105 8.22969 181.338 8.54302 182.391 9.16969C183.445 9.79635 184.251 10.6764 184.811 11.8097C185.385 12.9297 185.671 14.2364 185.671 15.7297C185.671 17.223 185.385 18.5364 184.811 19.6697C184.251 20.7897 183.445 21.663 182.391 22.2897C181.338 22.9164 180.105 23.2297 178.691 23.2297ZM178.691 20.6697C180.025 20.683 181.038 20.2497 181.731 19.3697C182.438 18.4897 182.791 17.2764 182.791 15.7297C182.791 14.1964 182.445 12.9964 181.751 12.1297C181.058 11.2497 180.038 10.803 178.691 10.7897C177.358 10.7764 176.338 11.2097 175.631 12.0897C174.938 12.9697 174.591 14.183 174.591 15.7297C174.591 17.263 174.938 18.4697 175.631 19.3497C176.325 20.2164 177.345 20.6564 178.691 20.6697ZM193.107 23.2297C192.041 23.2297 191.074 23.043 190.207 22.6697C189.354 22.283 188.654 21.7364 188.107 21.0297C187.561 20.323 187.214 19.4897 187.067 18.5297L189.907 18.1097C190.107 18.923 190.514 19.5564 191.127 20.0097C191.741 20.463 192.461 20.6897 193.287 20.6897C194.007 20.6897 194.641 20.5297 195.187 20.2097C195.747 19.8764 196.027 19.423 196.027 18.8497C196.027 18.5297 195.921 18.2497 195.707 18.0097C195.507 17.7697 195.147 17.5697 194.627 17.4097L190.887 16.3097C189.994 16.0564 189.227 15.663 188.587 15.1297C187.947 14.5964 187.627 13.7364 187.627 12.5497C187.627 11.6164 187.861 10.8297 188.327 10.1897C188.807 9.53635 189.454 9.04969 190.267 8.72969C191.081 8.39635 191.994 8.23635 193.007 8.24969C194.501 8.27635 195.747 8.64969 196.747 9.36969C197.747 10.0897 198.421 11.123 198.767 12.4697L195.827 12.9697C195.667 12.2764 195.307 11.743 194.747 11.3697C194.201 10.983 193.567 10.7897 192.847 10.7897C192.207 10.7897 191.654 10.943 191.187 11.2497C190.721 11.543 190.487 11.9297 190.487 12.4097C190.487 12.8364 190.661 13.163 191.007 13.3897C191.354 13.6164 191.821 13.803 192.407 13.9497L194.907 14.6297C195.627 14.8297 196.261 15.0564 196.807 15.3097C197.354 15.563 197.834 15.963 198.247 16.5097C198.674 17.043 198.887 17.7564 198.887 18.6497C198.887 19.6364 198.614 20.4764 198.067 21.1697C197.534 21.863 196.827 22.383 195.947 22.7297C195.067 23.063 194.121 23.2297 193.107 23.2297ZM204.425 11.0697H199.885V8.52969H211.685V11.0697H207.145V22.9297H204.425V11.0697Z" fill="#141414"/>
<path d="M66.7885 43.1397C65.7152 43.1397 64.8098 42.869 64.0725 42.3277C63.3352 41.7864 62.8825 41.0537 62.7145 40.1297L64.0025 39.9337C64.1612 40.559 64.4972 41.0537 65.0105 41.4177C65.5238 41.7724 66.1352 41.9497 66.8445 41.9497C67.5445 41.9497 68.1232 41.791 68.5805 41.4737C69.0378 41.147 69.2665 40.7177 69.2665 40.1857C69.2665 39.7844 69.1358 39.4717 68.8745 39.2477C68.6225 39.0144 68.2865 38.8324 67.8665 38.7017L65.2905 37.9457C64.6372 37.7497 64.1098 37.4604 63.7085 37.0777C63.3072 36.6857 63.1065 36.149 63.1065 35.4677C63.1065 34.889 63.2605 34.3897 63.5685 33.9697C63.8765 33.5404 64.2965 33.2137 64.8285 32.9897C65.3605 32.7564 65.9625 32.6397 66.6345 32.6397C67.6518 32.649 68.5012 32.915 69.1825 33.4377C69.8732 33.9604 70.3118 34.679 70.4985 35.5937L69.1685 35.8177C69.0658 35.211 68.7765 34.7304 68.3005 34.3757C67.8245 34.0117 67.2505 33.8297 66.5785 33.8297C66.1772 33.8297 65.8132 33.8997 65.4865 34.0397C65.1598 34.1704 64.8985 34.357 64.7025 34.5997C64.5158 34.8424 64.4225 35.113 64.4225 35.4117C64.4225 35.8317 64.5765 36.149 64.8845 36.3637C65.1925 36.569 65.5985 36.7417 66.1025 36.8817L68.0205 37.4277C68.4592 37.5584 68.8512 37.7077 69.1965 37.8757C69.5512 38.0437 69.8638 38.3097 70.1345 38.6737C70.4145 39.0377 70.5545 39.5184 70.5545 40.1157C70.5545 40.741 70.3865 41.2824 70.0505 41.7397C69.7238 42.197 69.2758 42.547 68.7065 42.7897C68.1372 43.023 67.4978 43.1397 66.7885 43.1397ZM76.3768 43.1397C75.3968 43.1397 74.5522 42.9204 73.8428 42.4817C73.1335 42.043 72.5922 41.427 72.2188 40.6337C71.8548 39.8404 71.6728 38.9257 71.6728 37.8897C71.6728 36.8537 71.8548 35.939 72.2188 35.1457C72.5922 34.3524 73.1335 33.7364 73.8428 33.2977C74.5522 32.859 75.3968 32.6397 76.3768 32.6397C77.3662 32.6397 78.2108 32.859 78.9108 33.2977C79.6202 33.7364 80.1568 34.3524 80.5208 35.1457C80.8942 35.9297 81.0808 36.8444 81.0808 37.8897C81.0808 38.935 80.8942 39.8544 80.5208 40.6477C80.1568 41.4317 79.6202 42.043 78.9108 42.4817C78.2108 42.9204 77.3662 43.1397 76.3768 43.1397ZM76.3768 41.9497C77.4782 41.959 78.3182 41.595 78.8968 40.8577C79.4755 40.1204 79.7648 39.131 79.7648 37.8897C79.7648 36.6484 79.4755 35.6637 78.8968 34.9357C78.3182 34.2077 77.4782 33.839 76.3768 33.8297C75.2848 33.8204 74.4495 34.1844 73.8708 34.9217C73.3015 35.6497 73.0122 36.639 73.0028 37.8897C72.9935 39.131 73.2782 40.1157 73.8568 40.8437C74.4355 41.5717 75.2755 41.9404 76.3768 41.9497ZM82.8368 32.8497H84.0828V41.7397H88.7588V42.9297H82.8368V32.8497ZM94.1288 43.1397C93.3542 43.1397 92.6635 42.981 92.0568 42.6637C91.4595 42.337 90.9928 41.8797 90.6568 41.2917C90.3208 40.7037 90.1528 40.0224 90.1528 39.2477V32.8497H91.4128V39.1497C91.4128 39.747 91.5435 40.2604 91.8048 40.6897C92.0755 41.1097 92.4162 41.427 92.8268 41.6417C93.2468 41.8564 93.6808 41.9637 94.1288 41.9637C94.5768 41.9637 95.0062 41.8564 95.4168 41.6417C95.8368 41.427 96.1775 41.1097 96.4388 40.6897C96.7095 40.2604 96.8448 39.747 96.8448 39.1497V32.8497H98.1048V39.2477C98.1048 40.0224 97.9368 40.7037 97.6008 41.2917C97.2648 41.8797 96.7935 42.337 96.1868 42.6637C95.5895 42.981 94.9035 43.1397 94.1288 43.1397ZM102.879 34.0257H99.435V32.8497H107.555V34.0257H104.125V42.9297H102.879V34.0257ZM109.019 32.8497H110.265V42.9297H109.019V32.8497ZM116.72 43.1397C115.74 43.1397 114.895 42.9204 114.186 42.4817C113.476 42.043 112.935 41.427 112.562 40.6337C112.198 39.8404 112.016 38.9257 112.016 37.8897C112.016 36.8537 112.198 35.939 112.562 35.1457C112.935 34.3524 113.476 33.7364 114.186 33.2977C114.895 32.859 115.74 32.6397 116.72 32.6397C117.709 32.6397 118.554 32.859 119.254 33.2977C119.963 33.7364 120.5 34.3524 120.864 35.1457C121.237 35.9297 121.424 36.8444 121.424 37.8897C121.424 38.935 121.237 39.8544 120.864 40.6477C120.5 41.4317 119.963 42.043 119.254 42.4817C118.554 42.9204 117.709 43.1397 116.72 43.1397ZM116.72 41.9497C117.821 41.959 118.661 41.595 119.24 40.8577C119.818 40.1204 120.108 39.131 120.108 37.8897C120.108 36.6484 119.818 35.6637 119.24 34.9357C118.661 34.2077 117.821 33.839 116.72 33.8297C115.628 33.8204 114.792 34.1844 114.214 34.9217C113.644 35.6497 113.355 36.639 113.346 37.8897C113.336 39.131 113.621 40.1157 114.2 40.8437C114.778 41.5717 115.618 41.9404 116.72 41.9497ZM123.04 32.8497H124.3L129.564 40.7177V32.8497H130.824V42.9297H129.564L124.3 35.0477V42.9297H123.04V32.8497ZM136.582 43.1397C135.508 43.1397 134.603 42.869 133.866 42.3277C133.128 41.7864 132.676 41.0537 132.508 40.1297L133.796 39.9337C133.954 40.559 134.29 41.0537 134.804 41.4177C135.317 41.7724 135.928 41.9497 136.638 41.9497C137.338 41.9497 137.916 41.791 138.374 41.4737C138.831 41.147 139.06 40.7177 139.06 40.1857C139.06 39.7844 138.929 39.4717 138.668 39.2477C138.416 39.0144 138.08 38.8324 137.66 38.7017L135.084 37.9457C134.43 37.7497 133.903 37.4604 133.502 37.0777C133.1 36.6857 132.9 36.149 132.9 35.4677C132.9 34.889 133.054 34.3897 133.362 33.9697C133.67 33.5404 134.09 33.2137 134.622 32.9897C135.154 32.7564 135.756 32.6397 136.428 32.6397C137.445 32.649 138.294 32.915 138.976 33.4377C139.666 33.9604 140.105 34.679 140.292 35.5937L138.962 35.8177C138.859 35.211 138.57 34.7304 138.094 34.3757C137.618 34.0117 137.044 33.8297 136.372 33.8297C135.97 33.8297 135.606 33.8997 135.28 34.0397C134.953 34.1704 134.692 34.357 134.496 34.5997C134.309 34.8424 134.216 35.113 134.216 35.4117C134.216 35.8317 134.37 36.149 134.678 36.3637C134.986 36.569 135.392 36.7417 135.896 36.8817L137.814 37.4277C138.252 37.5584 138.644 37.7077 138.99 37.8757C139.344 38.0437 139.657 38.3097 139.928 38.6737C140.208 39.0377 140.348 39.5184 140.348 40.1157C140.348 40.741 140.18 41.2824 139.844 41.7397C139.517 42.197 139.069 42.547 138.5 42.7897C137.93 43.023 137.291 43.1397 136.582 43.1397Z" fill="#141414"/>
</svg>
