<svg width="226" height="226" viewBox="0 0 226 226" fill="none" xmlns="http://www.w3.org/2000/svg">
<path d="M134.096 156.004H101.234L101.198 138.208H134.096C139.019 138.208 143.021 142.2 143.021 147.108C143.021 152.011 139.019 156.004 134.096 156.004ZM134.096 105.482C139.019 105.482 143.021 109.475 143.021 114.379C143.021 119.286 139.019 123.279 134.096 123.279H101.167L101.131 105.482H134.096ZM158 114.379C158 101.244 147.278 90.5532 134.096 90.5532H124.722L124.595 80L109.616 80.1759L109.743 90.5532H101.1L101.078 80.0739L86.0963 80.102L86.121 90.5532H75V105.482H86.1528L86.2587 156.004H75V170.933H86.2904L86.3116 181.93L101.29 181.898L101.269 170.933H109.704L109.831 182L124.81 181.828L124.683 170.933H134.096C147.278 170.933 158 160.246 158 147.108C158 140.776 155.512 135.014 151.457 130.743C155.512 126.473 158 120.711 158 114.379Z" fill="#0F0F0F"/>
<path d="M69.3628 213.852C65.2499 221.877 54.8916 224.525 47.5125 219.3C17.8473 198.302 0 164.448 0 127.505C0 90.5346 17.8473 56.6769 47.5125 35.6967C54.8951 30.4746 65.257 33.1262 69.3628 41.1548C72.6822 47.6411 70.8259 55.624 64.8602 59.8461C43.0028 75.3118 29.8458 100.264 29.8458 127.505C29.8458 154.725 43.0028 179.677 64.8709 195.157C70.833 199.383 72.6857 207.369 69.3628 213.852Z" fill="white"/>
<path d="M156.638 213.854C153.315 207.367 155.164 199.381 161.13 195.156C182.996 179.676 196.153 154.724 196.153 127.504C196.153 100.263 182.996 75.3114 161.137 59.8458C155.175 55.6238 153.319 47.641 156.638 41.1583C160.744 33.1297 171.103 30.4746 178.489 35.6967C208.152 56.6767 226 90.5375 226 127.504C226 164.446 208.156 198.3 178.489 219.301C171.11 224.523 160.751 221.879 156.638 213.854Z" fill="white"/>
<path d="M123.976 26.0719L112.793 4L101.414 26.4649L89 13.9727V50H136V13.9727L123.976 26.0719Z" fill="white"/>
</svg>
